<svg width="575" height="890" viewBox="0 0 575 890" fill="none" xmlns="http://www.w3.org/2000/svg">
<g id="Boy-Type-Alex">
<g id="Boy-Body-Style1-[G]">
<path id="Vector [Base]" d="M473.072 429.205C473.072 429.365 472.982 430.165 472.922 430.365C472.822 430.755 472.652 431.145 472.422 431.545C470.482 434.815 467.282 433.365 467.022 433.255C467.022 433.255 467.052 433.305 467.062 433.325C467.452 433.915 469.442 437.225 467.532 439.845C465.322 442.895 461.252 441.595 461.252 441.595C461.252 441.595 462.052 443.625 459.522 446.375C457.502 448.535 454.472 448.045 454.262 448.005H454.252C454.252 448.005 454.232 447.975 454.222 447.965C454.222 447.975 454.222 447.975 454.222 447.975L454.192 448.035L454.262 448.005C454.262 448.005 453.232 449.785 451.772 450.805C449.452 452.455 445.572 451.815 445.572 451.815C445.572 451.815 445.502 451.815 445.442 451.775C443.792 451.165 431.342 446.215 417.182 433.345C417.182 433.345 415.612 431.195 414.412 428.175C392.192 413.685 339.492 381.855 317.102 355.035L316.272 354.235C314.102 351.955 312.572 349.275 311.692 346.435L278.292 269.095C275.232 285.175 270.762 304.545 264.542 325.415C256.812 351.355 262.812 385.265 263.472 404.925C263.572 411.305 263.502 428.075 263.442 428.105C263.392 443.095 263.262 472.955 263.072 474.235C265.402 516.545 273.062 656.295 273.362 662.555C274.132 668.545 272.872 775.115 272.382 814.445H272.412C272.412 814.445 272.032 833.065 272.462 840.695C272.472 840.925 272.502 841.175 272.532 841.445C269.982 841.305 266.802 841.905 263.142 844.145C260.872 845.545 255.672 854.475 249.152 853.125C243.282 851.905 244.342 846.145 242.952 845.345C242.782 843.215 242.632 841.575 242.522 840.735C241.932 836.035 239.342 815.595 239.342 815.595H239.382L220.612 669.725C220.612 669.725 220.282 666.985 220.262 666.695L207.462 503.205L176.592 502.975L150.072 667.615C150.042 667.835 149.522 670.445 149.522 670.445L115.582 830.255H115.562C114.672 834.505 113.822 838.575 113.352 840.995C113.142 842.025 112.982 843.535 112.852 845.355C111.672 846.455 112.462 851.875 106.782 853.055C100.232 854.405 95.0221 845.445 92.7521 844.045C88.7821 841.605 85.3721 841.105 82.7121 841.385C82.8221 840.795 82.9021 840.275 82.9621 839.825C83.6321 834.535 84.7121 823.845 85.3321 817.685C85.3321 817.655 85.3321 817.625 85.3321 817.595V817.545C87.8221 782.345 96.1721 665.335 97.4821 659.165C98.3021 652.865 117.832 510.385 123.302 470.605C123.272 470.285 122.862 433.485 122.732 422.645V422.595C122.432 414.525 122.392 409.815 122.832 404.925C123.492 385.265 129.492 351.355 121.762 325.415C113.392 297.385 108.192 272.035 105.352 253.775C93.1721 266.985 72.2521 289.625 36.7221 327.985C32.3721 334.185 24.6621 337.675 16.7921 336.275C14.9821 335.955 13.2221 335.385 11.5721 334.595C11.0421 334.345 8.03206 332.665 7.21206 331.755C7.20206 331.755 5.06206 329.725 4.22206 328.595C1.04206 324.355 -0.567936 319.005 0.182064 313.645L0.202064 313.475V313.295C0.212064 313.075 1.38206 288.765 22.3821 199.305C22.1121 199.055 21.8521 198.795 21.5821 198.525C21.5821 198.525 13.6021 189.365 10.4021 162.115L1.60206 136.845C0.902064 134.955 1.47206 133.605 3.29206 132.925C5.14206 132.235 6.37206 133.635 7.43206 135.655L17.3121 156.915C17.5621 157.865 18.8021 157.545 18.5521 156.095L12.1221 122.905C11.8721 120.975 13.2421 119.215 15.1621 118.975C17.0921 118.725 18.8521 120.095 19.1021 122.025L26.4021 151.685C26.8521 152.745 28.0921 152.005 27.9121 151.015L24.4621 117.075C24.2121 115.045 25.6321 113.245 27.6721 112.985C29.7121 112.725 31.5321 114.295 31.7921 116.335L35.6921 149.155C35.9121 149.985 36.7121 151.115 37.2121 151.045C38.1321 150.905 39.3221 149.935 39.3221 149.935C41.7521 146.705 46.3721 141.135 48.0521 140.995C52.8821 140.595 58.6721 143.695 59.3121 144.735C59.6021 145.205 60.1921 147.415 60.7521 149.235C61.4421 151.495 62.9021 153.325 62.2121 153.665C55.8721 156.815 55.3021 150.325 54.9021 149.335C54.6421 148.715 51.5121 148.625 50.1721 148.465C49.3321 148.355 46.7921 153.765 46.7921 153.765C46.7921 153.765 45.4821 159.775 46.3121 165.565C46.3121 165.565 49.0121 171.755 50.7521 172.465C51.4921 172.765 53.3421 170.955 55.3021 168.665H55.2821C55.6621 164.635 55.7821 160.555 55.7821 160.555C55.7521 158.505 57.1621 155.535 59.5221 154.665C61.6821 153.875 63.1321 154.195 63.1421 155.495C63.1421 155.495 62.8421 157.825 62.8821 160.205C62.9321 162.715 63.1521 165.795 63.4121 168.895C63.4121 168.895 63.9621 170.495 63.3021 171.705C60.7121 176.475 58.2221 181.365 57.0421 183.515C52.3621 192.005 46.1321 196.725 46.1321 196.725C46.1321 196.725 45.3621 198.575 43.7721 200.595C44.3421 213.855 45.4921 233.955 45.6121 254.895L84.8321 208.005C88.0221 203.875 92.3621 201.135 97.0521 199.865C97.0721 199.865 97.0921 199.845 97.1121 199.845C98.0421 199.565 98.5921 199.465 98.5921 199.465C98.5921 199.465 135.432 189.225 165.752 182.615C165.752 182.615 167.732 182.285 171.072 181.875L171.132 148.035C160.872 142.425 152.272 132.365 148.942 116.565C148.892 116.585 148.852 116.605 148.812 116.625C148.812 116.625 134.972 120.505 130.172 97.5951C126.182 78.5751 144.562 83.0951 144.562 83.0951C144.562 83.0951 145.012 83.1951 145.702 83.7051C145.552 82.5051 145.362 81.3751 145.162 80.3251C145.022 74.0351 134.832 13.4951 194.222 13.4951H194.572C253.952 13.4951 243.772 73.9851 243.632 80.2751C243.452 81.1951 243.282 82.1851 243.142 83.2251C243.372 83.1251 243.502 83.0951 243.502 83.0951C243.502 83.0951 261.882 78.5751 257.902 97.5951C253.652 117.845 242.352 117.165 239.792 116.735C236.382 132.885 227.482 142.945 216.962 148.435L216.912 181.905C218.142 182.105 220.832 182.665 220.972 182.705C251.212 189.325 287.702 199.465 287.702 199.465C287.702 199.465 295.702 200.885 301.502 208.395C302.632 209.855 303.672 211.545 304.562 213.495C304.562 213.515 304.582 213.545 304.592 213.565C304.822 214.155 305.182 215.085 305.712 216.485C309.042 225.215 319.142 252.095 347.472 327.965C354.292 333.945 376.332 354.525 425.522 410.075C425.962 409.975 426.412 409.885 426.882 409.795C426.882 409.795 436.022 405.775 444.042 405.865C445.462 405.885 447.472 406.665 449.732 407.955C449.762 407.975 449.782 407.985 449.812 408.005C453.162 409.715 457.232 411.905 462.442 412.535C468.502 413.275 470.322 412.195 470.492 413.335C470.902 416.165 470.272 419.025 465.732 420.185L469.992 423.615C469.992 423.615 470.892 424.425 471.782 425.635C471.862 425.745 471.942 425.865 472.022 425.975C472.122 426.145 472.922 427.545 473.002 428.485C473.052 428.715 473.072 428.965 473.072 429.205Z" fill="#D09C79"/>
<g id="Group-1 [Body-Parts_Main-Color]">
<path id="Vector" d="M469.362 424.655C469.022 424.465 465.382 422.355 462.452 420.665C463.222 420.615 463.912 420.535 464.552 420.435L469.362 424.655Z" fill="#B76026"/>
<path id="Vector_2" d="M448.012 425.445C446.042 428.025 447.092 430.045 447.802 430.965C449.892 432.465 458.402 438.615 461.222 441.585C460.742 441.285 453.042 436.525 447.762 431.065C446.822 430.395 444.972 429.515 442.822 432.015C440.602 434.565 442.012 436.885 442.572 437.615C442.572 437.625 442.572 437.635 442.592 437.645C444.702 439.415 452.632 446.105 454.262 448.005H454.252C453.962 447.785 448.382 443.765 442.512 437.655C442.512 437.655 442.505 437.655 442.492 437.655C440.952 436.625 439.502 437.045 438.312 438.215C437.042 439.465 437.082 440.525 437.962 442.075C438.822 443.645 442.352 447.735 443.752 449.145C444.352 449.735 444.742 450.315 445.012 450.785C441.712 449.415 435.022 444.435 435.022 444.435C440.352 431.585 433.802 423.135 433.802 423.135C440.402 424.635 446.532 422.385 450.942 419.795C451.542 419.905 452.132 419.995 452.692 420.075C451.812 422.115 452.722 423.565 453.242 424.165H453.252C454.832 425.115 463.402 430.285 467.002 433.175C466.552 432.985 459.442 429.835 453.342 424.315C452.612 423.795 450.242 422.525 448.002 425.455L448.012 425.445Z" fill="#B76026"/>
<path id="Vector_3" d="M13.3516 166.125C13.3516 166.125 23.4416 155.455 42.8016 154.345C42.8016 154.345 26.4616 156.675 13.3516 166.125Z" fill="#B76026"/>
<path id="Vector_4" d="M216.962 148.435V159.635C202.392 173.545 177.342 166.865 171.112 161.095L171.132 148.035C178.382 152.015 186.472 153.775 194.092 153.775H194.572C201.982 153.775 209.852 152.155 216.962 148.435Z" fill="#B76026"/>
<path id="Vector_5" d="M192.092 98.925C192.092 98.925 183.572 117.455 202.712 114.455C202.712 114.455 200.462 116.085 196.242 116.085C194.092 116.085 186.032 116.645 187.602 109.875C188.982 103.945 192.092 98.925 192.092 98.925Z" fill="#B76026"/>
<path id="Vector_6" d="M251.282 102.715C249.132 106.295 243.492 110.485 240.952 109.145C241.082 107.815 241.212 106.465 241.322 105.115C243.792 103.405 247.582 99.745 241.972 96.055C241.982 95.855 242.002 95.675 242.012 95.485C242.622 93.265 245.382 84.775 251.272 87.045C258.022 89.655 252.602 100.485 251.272 102.715H251.282Z" fill="#B76026"/>
<path id="Vector_7" d="M147.762 108.585C145.702 111.305 139.152 106.635 136.802 102.715C135.462 100.485 130.042 89.6551 136.802 87.0451C143.552 84.4451 146.192 95.9851 146.192 95.9851C139.822 100.085 145.222 104.175 147.502 105.585C147.582 106.595 147.682 107.585 147.772 108.575L147.762 108.585Z" fill="#B76026"/>
</g>
</g>
<g id="Boy-Shoe-[F]-01">
<g id="Group-3 [Base_Main-Color]">
<path id="Vector [Base]_2" d="M307.782 880.775C307.762 881.095 307.732 881.395 307.712 881.665C307.702 881.755 307.692 881.835 307.692 881.915C307.682 882.015 307.672 882.115 307.652 882.195C307.582 882.765 307.502 883.085 307.502 883.085H236.902C236.262 859.615 240.062 845.785 242.362 845.275C244.672 844.765 242.612 851.765 249.142 853.125C255.662 854.475 260.862 845.535 263.142 844.145C272.962 838.115 279.362 843.975 279.362 843.975L296.002 865.635C296.372 865.675 296.582 865.695 296.582 865.695C305.822 867.755 307.642 874.605 307.772 879.065C307.812 879.685 307.792 880.265 307.772 880.785L307.782 880.775Z" fill="#707072"/>
<path id="Vector [Base]_3" d="M119.042 883.075H48.2924C48.2924 883.075 48.2224 882.755 48.1424 882.185C48.1324 882.095 48.1224 881.995 48.1024 881.905C48.1024 881.835 48.0924 881.745 48.0824 881.655C48.0624 881.385 48.0324 881.085 48.0124 880.765C47.9924 880.245 47.9724 879.665 48.0124 879.045C48.1524 874.575 49.9724 867.715 59.2324 865.645C59.2324 865.645 59.4424 865.625 59.8124 865.585L76.4924 843.875C76.4924 843.875 82.9024 838.005 92.7524 844.045C95.0224 845.445 100.232 854.395 106.782 853.045C113.332 851.685 111.262 844.675 113.572 845.185C115.892 845.695 119.692 859.545 119.042 883.075Z" fill="#707072"/>
</g>
<g id="Group-2">
<path id="Vector_8" d="M307.522 883.075H236.292V889.655H307.522V883.075Z" fill="#A5A5A6"/>
<path id="Vector_9" d="M296.582 865.695C310.672 868.855 307.492 883.075 307.492 883.075H270.312C271.242 862.075 296.582 865.695 296.582 865.695Z" fill="#A5A5A6"/>
<path id="Vector_10" d="M119.482 883.075H47.4619V889.655H119.482V883.075Z" fill="#A5A5A6"/>
<path id="Vector_11" d="M59.2321 865.645C45.1121 868.815 48.3021 883.065 48.3021 883.065H85.5621C84.6321 862.015 59.2321 865.645 59.2321 865.645Z" fill="#A5A5A6"/>
</g>
<g id="Group-1">
<path id="Vector_12" d="M278.389 865.135C278.579 865.135 278.759 865.095 278.939 865.015C287.429 861.235 293.049 862.915 293.109 862.935C293.819 863.165 294.579 862.765 294.809 862.055C295.039 861.345 294.649 860.585 293.939 860.355C293.669 860.265 287.349 858.305 277.839 862.545C277.159 862.845 276.849 863.645 277.149 864.335C277.369 864.835 277.869 865.135 278.389 865.135Z" fill="#E8E8E8"/>
<path id="Vector_13" d="M274.998 860.385C275.178 860.385 275.368 860.345 275.548 860.265C284.038 856.485 289.658 858.165 289.708 858.185C290.418 858.405 291.178 858.005 291.408 857.305C291.638 856.595 291.248 855.835 290.538 855.605C290.278 855.515 283.948 853.555 274.438 857.795C273.758 858.095 273.448 858.895 273.748 859.585C273.968 860.085 274.468 860.385 274.988 860.385H274.998Z" fill="#E8E8E8"/>
<path id="Vector_14" d="M272.328 856.535C272.528 856.535 272.718 856.495 272.908 856.405C281.378 852.355 286.948 853.915 287.008 853.935C287.728 854.145 288.478 853.735 288.688 853.015C288.898 852.295 288.488 851.545 287.768 851.335C287.498 851.255 281.128 849.465 271.738 853.965C271.068 854.285 270.778 855.095 271.098 855.765C271.328 856.255 271.818 856.535 272.328 856.535Z" fill="#E8E8E8"/>
<path id="Vector_15" d="M268.968 851.925C269.178 851.925 269.378 851.875 269.578 851.775C277.968 847.575 283.578 849.045 283.628 849.055C284.348 849.255 285.098 848.835 285.298 848.105C285.498 847.385 285.078 846.635 284.348 846.435C284.078 846.365 277.678 844.685 268.368 849.345C267.698 849.685 267.428 850.495 267.768 851.165C268.008 851.635 268.478 851.915 268.978 851.915L268.968 851.925Z" fill="#E8E8E8"/>
<path id="Vector_16" d="M79.518 865.085C79.328 865.085 79.148 865.045 78.968 864.965C70.458 861.175 64.828 862.865 64.768 862.875C64.058 863.105 63.288 862.705 63.068 861.995C62.838 861.275 63.228 860.525 63.938 860.285C64.208 860.195 70.548 858.225 80.078 862.475C80.758 862.775 81.068 863.585 80.768 864.265C80.548 864.775 80.048 865.065 79.528 865.075L79.518 865.085Z" fill="#E8E8E8"/>
<path id="Vector_17" d="M82.9086 860.335C82.7186 860.335 82.5386 860.295 82.3586 860.215C73.8486 856.425 68.2186 858.115 68.1586 858.135C67.4486 858.355 66.6786 857.955 66.4586 857.245C66.2286 856.535 66.6186 855.775 67.3286 855.545C67.5886 855.455 73.9286 853.485 83.4586 857.735C84.1486 858.035 84.4486 858.845 84.1486 859.525C83.9286 860.035 83.4286 860.335 82.9086 860.335Z" fill="#E8E8E8"/>
<path id="Vector_18" d="M85.588 856.465C85.388 856.465 85.188 856.425 84.998 856.335C76.518 852.275 70.928 853.845 70.868 853.865C70.148 854.075 69.388 853.665 69.178 852.945C68.968 852.225 69.378 851.465 70.098 851.255C70.368 851.175 76.758 849.375 86.168 853.885C86.838 854.205 87.128 855.015 86.808 855.695C86.578 856.185 86.088 856.465 85.578 856.465H85.588Z" fill="#E8E8E8"/>
<path id="Vector_19" d="M88.9481 851.845C88.7381 851.845 88.5381 851.795 88.3381 851.695C79.9281 847.485 74.3081 848.955 74.2481 848.975C73.5281 849.175 72.7781 848.755 72.5781 848.025C72.3781 847.305 72.7981 846.555 73.5281 846.355C73.7981 846.285 80.2181 844.605 89.5481 849.275C90.2181 849.615 90.4881 850.425 90.1481 851.095C89.9081 851.565 89.4281 851.845 88.9381 851.845H88.9481Z" fill="#E8E8E8"/>
</g>
</g>
<g id="Boy-Pant-[E]-01">
<path id="Vector [Base_Main-Color]" d="M280.432 818.675C273.792 820.535 250.152 826.375 232.332 820.845L220.222 667.655C220.222 667.525 220.202 667.385 220.202 667.255C220.172 667.065 220.162 666.875 220.152 666.685L207.352 503.195L176.602 502.975L150.222 666.845C150.072 667.925 149.852 668.985 149.582 669.995L125.302 820.135C107.302 824.305 84.372 816.765 77.502 814.245C81.552 781.735 96.062 665.405 97.382 659.155C97.492 658.525 97.632 657.915 97.792 657.305C99.722 642.825 117.712 511.635 123.252 471.325C123.192 470.705 123.162 470.085 123.152 469.455L122.602 419.675H263.492C263.492 419.675 263.362 467.965 263.362 468.995C263.362 470.775 263.382 472.445 263.122 474.155C265.452 516.475 273.072 656.315 273.362 662.565C274.182 668.895 279.042 785.855 280.432 818.685V818.675Z" fill="#2B2C2C"/>
<g id="Group-2_2">
<path id="Vector_20" d="M282.232 818.145L282.022 827.325C267.262 837.495 231.732 832.065 231.732 832.065L229.872 819.995C230.682 820.305 231.502 820.585 232.332 820.845C250.152 826.375 273.792 820.535 280.432 818.675C281.592 818.345 282.232 818.145 282.232 818.145Z" fill="#7C7C7C"/>
<path id="Vector_21" d="M127.502 819.565L124.662 831.455C124.662 831.455 88.8116 833.975 74.9316 822.635L75.4616 813.465C75.4616 813.465 76.1916 813.765 77.5016 814.245C84.3716 816.765 107.302 824.305 125.302 820.135C126.042 819.965 126.782 819.775 127.502 819.565Z" fill="#7C7C7C"/>
<path id="Vector_22" d="M262.602 471.895C262.502 472.445 262.002 472.815 261.462 472.765C261.432 472.765 261.392 472.765 261.352 472.745C239.322 468.575 228.952 454.465 224.362 444.955H226.742C231.342 453.995 241.302 466.775 261.752 470.655C262.332 470.765 262.712 471.325 262.602 471.895Z" fill="#7C7C7C"/>
<path id="Vector_23" d="M199.872 495.685C199.962 496.385 199.472 497.015 198.782 497.095C198.692 497.115 198.602 497.115 198.512 497.095C197.932 497.045 197.442 496.595 197.362 495.995C197.352 495.895 196.872 491.975 196.412 485.185H196.372C196.372 485.185 196.312 485.175 196.282 485.175C191.672 484.465 187.882 482.095 185.032 478.135C179.112 469.905 178.272 456.335 178.682 446.035C179.282 446.435 180.012 446.655 180.792 446.655H181.222C180.882 456.525 181.712 469.205 187.082 476.665C189.432 479.935 192.512 481.925 196.242 482.595C195.722 473.885 195.312 461.405 195.782 446.655H198.312C197.382 475.415 199.842 495.455 199.872 495.675V495.685Z" fill="#7C7C7C"/>
<path id="Vector_24" d="M162.062 444.955C157.482 454.465 147.112 468.575 125.082 472.745C125.042 472.755 125.002 472.765 124.972 472.765C124.432 472.815 123.932 472.445 123.832 471.895C123.722 471.325 124.102 470.765 124.682 470.655C145.132 466.775 155.092 453.995 159.692 444.955H162.062Z" fill="#7C7C7C"/>
</g>
<g id="Group-1 [Belt]">
<path id="Vector_25" d="M209.902 427.395C209.262 426.375 208.062 425.695 206.682 425.695H180.792C179.422 425.695 178.222 426.375 177.572 427.395C177.242 427.905 177.052 428.495 177.052 429.125V443.225C177.052 443.855 177.242 444.445 177.562 444.955C178.212 445.975 179.422 446.665 180.792 446.665H206.682C208.062 446.665 209.262 445.975 209.912 444.955C210.232 444.445 210.422 443.855 210.422 443.225V429.125C210.422 428.495 210.232 427.905 209.902 427.395ZM206.682 443.245L180.812 443.225L180.792 429.105L206.662 429.125V443.225L206.682 443.245Z" fill="white"/>
<g id="Group-1-1">
<path id="Vector_26" d="M265.072 429.125V443.225C265.072 444.185 264.232 444.955 263.212 444.955H241.952V427.395H263.212C264.232 427.395 265.072 428.175 265.072 429.125Z" fill="black"/>
<path id="Vector_27" d="M233.122 427.395V444.955H209.912C210.232 444.445 210.422 443.855 210.422 443.225V429.125C210.422 428.495 210.232 427.905 209.902 427.395H233.122Z" fill="black"/>
<path id="Vector_28" d="M206.682 443.245L180.812 443.225L180.792 429.105L206.662 429.125V443.225L206.682 443.245Z" fill="black"/>
<path id="Vector_29" d="M177.052 443.225C177.052 443.855 177.242 444.445 177.562 444.955H150.352V427.395H177.572C177.242 427.905 177.052 428.495 177.052 429.125V443.225Z" fill="black"/>
<path id="Vector_30" d="M141.512 427.395V444.955H122.752C121.732 444.955 120.892 444.185 120.892 443.225V429.125C120.892 428.175 121.732 427.395 122.752 427.395H141.512Z" fill="black"/>
</g>
</g>
</g>
<g id="Boy-Top-[D]-01">
<path id="Vector [Base_Main-Color]_2" d="M336.112 296.735L292.502 317.655L276.202 279.405C273.312 293.185 269.472 308.815 264.542 325.375C256.812 351.305 262.812 385.225 263.472 404.885C265.632 408.175 267.082 424.045 263.612 427.965C262.402 428.665 260.932 429.355 259.232 430.005C233.162 440.065 153.532 443.765 122.962 428.315C119.502 424.385 120.682 408.175 122.842 404.885C123.212 393.915 125.242 378.515 125.622 362.525V362.485C125.832 353.785 125.542 344.925 124.232 336.515V336.495C123.642 332.675 122.842 328.945 121.772 325.375C114.482 300.935 109.602 278.535 106.582 261.095C95.0521 273.585 79.3721 290.505 63.1821 307.975L45.6221 254.865L83.6821 208.925C87.0021 204.635 91.4521 201.625 96.3421 200.055C96.6121 199.965 128.242 191.235 154.662 185.085C158.402 184.205 162.132 183.365 165.762 182.575H165.842L172.672 191.335C186.182 208.675 213.402 204.825 221.582 184.425L222.182 182.925C226.622 183.905 231.182 184.965 235.732 186.045C247.042 188.725 258.272 191.585 267.382 193.975C276.822 196.435 283.992 198.395 286.622 199.125C286.642 199.125 286.662 199.125 286.682 199.135C289.742 199.875 294.972 202.465 295.302 202.675C299.272 205.165 302.642 208.725 304.852 213.245C305.402 214.375 320.912 256.465 336.112 296.735Z" fill="#3B3A3A"/>
<path id="Vector_31" d="M235.942 185.655C235.872 185.785 235.812 185.915 235.732 186.045C231.012 194.975 218.512 213.455 195.812 213.455C173.112 213.455 160.542 197.085 154.662 185.085C154.602 184.965 154.542 184.855 154.492 184.745C154.722 184.695 164.152 182.545 165.572 182.235L165.842 182.575L172.672 191.335C186.182 208.675 213.402 204.825 221.582 184.425L222.182 182.925L222.232 182.805C222.572 182.865 235.822 185.625 235.942 185.655Z" fill="#858585"/>
</g>
<g id="Boy-Face-[C]-01">
<g id="Group-2 [Mouth]">
<path id="Vector [Teeth or Tang]" d="M177.612 127.135H210.702C210.702 127.135 213.972 127.035 211.622 132.085C210.152 135.275 206.142 141.895 194.722 142.195C181.182 142.555 176.512 131.785 176.512 131.785C176.512 131.785 174.272 127.125 177.612 127.125V127.135Z" fill="white"/>
<path id="Vector [Teeth]" d="M212.172 130.685C213.292 127.055 210.692 127.145 210.692 127.145H177.602C175.112 127.145 175.732 129.735 176.192 131.075C182.562 132.725 195.552 134.775 212.162 130.695L212.172 130.685Z" fill="white"/>
</g>
<g id="Group-1 [Eyes/brows]">
<path id="Vector_32" d="M225.682 95.1248C225.682 99.0848 223.472 102.305 220.732 102.305C217.992 102.305 215.782 99.0948 215.782 95.1248C215.782 91.1548 218.002 87.9448 220.732 87.9448C223.462 87.9448 225.682 91.1548 225.682 95.1248Z" fill="#352320"/>
<path id="Vector_33" d="M171.572 95.1248C171.572 99.0848 169.362 102.305 166.622 102.305C163.882 102.305 161.672 99.0948 161.672 95.1248C161.672 91.1548 163.892 87.9448 166.622 87.9448C169.352 87.9448 171.572 91.1548 171.572 95.1248Z" fill="#352320"/>
<path id="Vector_34" d="M228.842 83.7948C228.562 83.7948 228.282 83.7548 228.002 83.6648C225.892 82.9748 223.692 82.6248 221.472 82.6248C219.252 82.6248 217.062 82.9748 214.952 83.6648C214.672 83.7548 214.392 83.7948 214.112 83.7948C212.922 83.7948 211.882 83.0348 211.512 81.9048C211.052 80.4848 211.832 78.9448 213.262 78.4748C215.922 77.6048 218.682 77.1748 221.472 77.1748C224.262 77.1748 227.032 77.6148 229.682 78.4748C230.382 78.7048 230.942 79.1848 231.272 79.8448C231.602 80.4948 231.652 81.2248 231.422 81.9148C231.052 83.0348 230.012 83.7948 228.832 83.7948H228.842Z" fill="#352320"/>
<path id="Vector_35" d="M173.712 83.7948C173.432 83.7948 173.142 83.7448 172.872 83.6648C170.772 82.9848 168.572 82.6348 166.342 82.6348C164.112 82.6348 161.922 82.9848 159.822 83.6648C159.542 83.7548 159.262 83.7948 158.982 83.7948C157.802 83.7948 156.762 83.0348 156.392 81.9148C156.162 81.2248 156.222 80.4848 156.552 79.8348C156.882 79.1848 157.442 78.7048 158.142 78.4848C160.792 77.6248 163.552 77.1848 166.352 77.1848C169.152 77.1848 171.912 77.6248 174.562 78.4848C175.982 78.9548 176.762 80.4948 176.312 81.9148C175.952 83.0448 174.902 83.7948 173.712 83.7948Z" fill="#352320"/>
</g>
</g>
<g id="Boy-Hair-[B]-02">
<path id="Vector [Base_Main-Color]" d="M234.802 26.1685C229.662 13.5285 209.912 -7.32148 180.782 2.59852C167.642 7.07852 157.452 13.1485 149.892 20.5885L149.912 20.5385C149.912 20.5385 149.802 20.6485 149.702 20.7685C148.052 22.4085 146.532 24.1185 145.122 25.8885C139.602 31.8085 131.272 39.5385 125.942 40.0785C125.942 40.0785 128.792 46.0885 136.302 45.7385C136.442 52.4285 125.002 58.8385 125.002 58.8385C129.782 68.0285 144.402 70.9485 144.402 70.9485C171.142 73.7085 176.382 36.3185 196.952 33.3785C207.802 31.8285 221.832 49.8785 223.212 51.6885C223.162 51.7985 223.132 51.8485 223.132 51.8485C238.272 56.3585 237.862 94.9485 237.862 94.9485C239.332 84.6585 258.692 73.7985 256.122 49.5485C253.552 25.2885 234.802 26.1685 234.802 26.1685Z" fill="#111111"/>
<g id="Group-1">
<path id="Vector" d="M151.112 96.5783C151.112 96.5783 143.112 82.9083 138.082 82.5083C137.802 82.4783 135.552 76.4483 135.302 67.7783C140.042 70.0783 144.402 70.9483 144.402 70.9483C146.822 71.1983 149.062 71.1183 151.152 70.7683C150.792 84.0383 151.112 96.5783 151.112 96.5783Z" fill="#6C6C6C"/>
<path id="Vector_2" d="M223.132 51.8485C212.442 46.1385 187.382 49.1385 175.502 50.9985C181.782 42.6885 187.872 34.6785 196.952 33.3785C207.782 31.8285 221.832 49.8785 223.252 51.7385C231.542 44.1185 234.922 33.4285 234.702 26.1685C236.002 46.3085 223.132 51.8485 223.132 51.8485Z" fill="#6C6C6C"/>
<path id="Vector_3" d="M143.942 31.8882C143.942 31.8882 143.782 52.1182 130.342 58.8482C130.342 58.8482 137.972 58.8782 142.772 51.4482C148.242 42.9982 143.942 31.8882 143.942 31.8882Z" fill="#6C6C6C"/>
<path id="Vector_4" d="M141.002 32.4585C141.002 32.4585 137.262 39.5885 130.342 40.5385C130.342 40.5385 134.492 42.9885 138.172 40.7785C142.862 37.9685 140.992 32.4585 140.992 32.4585H141.002Z" fill="#6C6C6C"/>
</g>
</g>
<g id="Boy-Accessory-[A]-01">
<g id="Group-3 [Base]">
<path id="Vector_45" d="M369.088 446.492L364.203 450.841L412.739 505.355L417.624 501.006L369.088 446.492Z" fill="#EEC66D"/>
<path id="Vector_46" d="M417.196 428.459L413.939 431.359L438.57 459.023L441.826 456.123L417.196 428.459Z" fill="#EEC66D"/>
<path id="Vector_47" d="M453.922 424.555L459.632 428.085L459.082 428.775C457.212 427.525 455.202 426.035 453.292 424.305C452.562 423.785 450.192 422.515 447.952 425.445C445.982 428.025 447.032 430.045 447.742 430.965C448.662 431.625 450.842 433.195 453.232 434.995L452.692 435.565C450.982 434.185 449.242 432.655 447.702 431.065C446.762 430.395 444.912 429.515 442.762 432.015C440.542 434.565 441.952 436.885 442.512 437.615C442.512 437.615 442.512 437.635 442.532 437.645C443.372 438.355 445.162 439.855 447.092 441.515L446.772 441.865C445.402 440.615 443.932 439.195 442.452 437.655C442.452 437.655 442.445 437.651 442.432 437.645C440.892 436.615 439.442 437.035 438.252 438.205C436.982 439.455 437.022 440.515 437.902 442.065C438.482 443.135 440.302 445.355 441.832 447.115L440.652 448.365L439.952 449.115L423.422 430.545L441.172 417.365C443.372 418.515 445.622 419.035 445.622 419.035C448.152 419.585 450.602 419.755 452.662 420.065C452.092 421.655 452.472 423.575 453.932 424.555H453.922Z" fill="#EEC66D"/>
<path id="Vector_48" d="M574.392 378.955L567.882 384.745L565.642 382.225C565.042 382.695 564.382 383.225 563.642 383.805C563.192 384.165 562.712 384.535 562.212 384.925C561.252 385.675 560.212 386.475 559.092 387.315C558.632 387.665 558.162 388.015 557.672 388.375C557.192 388.745 556.702 389.105 556.192 389.485C555.522 389.985 554.822 390.485 554.102 391.015C553.032 391.785 551.912 392.585 550.752 393.405C540.762 400.455 527.842 408.665 514.662 414.585C514.152 414.815 513.652 415.035 513.152 415.255C512.662 415.475 512.162 415.685 511.672 415.885C511.442 415.985 511.212 416.075 510.982 416.175C510.442 416.405 509.892 416.625 509.352 416.835C508.652 417.115 507.952 417.385 507.252 417.645C493.002 422.975 478.952 424.835 468.652 418.885C469.872 417.855 470.422 416.545 470.492 415.125C470.512 414.635 470.492 414.145 470.442 413.655C470.432 413.575 470.422 413.485 470.412 413.405C470.262 412.205 468.342 413.365 462.002 412.505C458.501 412.005 455.353 410.647 452.152 409.225L456.982 405.635C452.242 394.475 456.012 380.485 463.252 366.705C463.512 366.195 463.782 365.695 464.062 365.195C464.392 364.585 464.732 363.965 465.082 363.355C465.332 362.905 465.592 362.465 465.842 362.025C466.092 361.575 466.352 361.135 466.632 360.685C473.372 349.375 481.992 338.505 489.612 329.795C490.012 329.345 490.402 328.905 490.792 328.465C491.072 328.135 491.352 327.825 491.642 327.505C492.492 326.555 493.332 325.635 494.142 324.745C495.222 323.565 496.272 322.435 497.272 321.375C498.852 319.695 500.322 318.175 501.622 316.845C501.922 316.545 502.212 316.255 502.492 315.975C503.302 315.155 504.042 314.415 504.702 313.765L501.982 310.705L508.482 304.905L574.402 378.955H574.392Z" fill="#EEC66D"/>
</g>
<g id="Group-2 [Main-Color]">
<path id="Vector_49" d="M403.075 419.15L370.526 448.129L416.163 499.387L448.712 470.408L403.075 419.15Z" fill="#EAA613"/>
<path id="Vector_50" d="M442.812 452.335L440.382 454.515L418.642 430.095L421.092 427.925L442.812 452.335Z" fill="#EAA613"/>
<path id="Vector_51" d="M468.642 418.885L465.242 422.275L462.452 420.665C464.312 420.445 467.592 419.465 468.642 418.885Z" fill="#EAA613"/>
<path id="Vector_52" d="M457.002 405.505C458.002 407.875 460.182 410.425 462.002 412.505C458.502 412.005 454.672 410.522 452.152 409.292C452.102 409.212 452.202 409.372 452.152 409.292L457.002 405.505Z" fill="#EAA613"/>
<path id="Vector_53" d="M525.992 363.915C525.992 363.915 525.852 363.755 525.712 363.705L510.872 356.405C510.722 356.355 510.622 356.445 510.562 356.585C510.392 356.925 510.262 357.505 510.502 357.665L514.312 360.585C514.632 360.845 514.612 361.335 514.242 361.755C512.252 363.805 505.152 370.315 502.612 372.665C500.842 374.335 492.442 382.095 490.952 383.325C490.532 383.695 490.112 383.425 489.782 383.165L486.692 380.535C486.462 380.365 485.952 380.635 485.792 380.775C485.692 380.865 485.642 380.905 485.732 381.015C486.842 382.155 489.432 384.955 492.102 387.965C494.772 390.965 496.892 393.445 498.262 395.095C498.402 395.245 498.452 395.205 498.562 395.095C498.762 394.915 498.992 394.435 498.902 394.235L496.782 391.115C496.562 390.665 496.152 390.005 496.622 389.585C497.242 389.035 504.572 382.785 509.022 378.915C511.922 376.335 525.222 365.335 525.892 364.735C526.152 364.505 526.222 364.165 525.992 363.905V363.915Z" fill="#EAA613"/>
<path id="Vector_54" d="M565.642 382.225C565.042 382.695 564.382 383.225 563.642 383.805C563.202 384.175 562.732 384.545 562.232 384.945L562.212 384.925L559.702 382.105C502.252 424.145 477.232 418.255 470.482 415.125C470.502 414.635 470.482 414.145 470.432 413.655C503.152 407.605 538.022 373.995 545.642 366.305L511.122 327.535L504.202 319.765L501.612 316.845C501.912 316.545 502.202 316.255 502.482 315.975C503.322 315.145 504.062 314.415 504.702 313.785L565.642 382.225Z" fill="#EAA613"/>
<path id="Vector_55" d="M559.342 422.265C544.992 430.595 522.972 431.055 507.242 417.645C510.032 416.605 512.842 415.415 515.632 414.145C527.992 422.995 544.702 421.875 555.722 415.475C560.502 412.695 565.072 408.105 563.562 403.495C560.502 394.115 555.032 393.485 550.742 393.395C553.842 391.225 556.642 389.155 559.082 387.305C563.422 389.065 567.982 392.875 570.722 401.215C573.162 408.675 568.732 416.805 559.342 422.245V422.265Z" fill="#EAA613"/>
<path id="Vector_56" d="M497.262 321.375C494.922 323.855 492.322 326.685 489.592 329.795C489.192 328.435 489.342 326.935 489.492 325.535C489.962 321.175 490.592 315.185 481.032 310.795C476.642 308.765 471.532 312.785 468.222 317.205C460.002 328.215 457.092 346.515 466.862 360.265C465.332 362.825 463.882 365.405 462.572 367.995C448.652 350.445 451.422 326.875 461.922 312.825C468.412 304.125 476.992 300.675 484.132 303.955C494.722 308.825 497.002 316.005 497.272 321.375H497.262Z" fill="#EAA613"/>
</g>
<g id="Group-1_3">
<path id="Vector_57" d="M403.627 436.154L388.98 449.194L418.685 482.557L433.331 469.517L403.627 436.154Z" fill="white"/>
<path id="Vector_58" d="M461.982 406.655C461.982 406.655 446.112 382.425 504.192 319.765L511.112 327.535C502.772 335.105 464.962 371.245 461.972 406.655H461.982Z" fill="white"/>
</g>
</g>
</g>
</svg>
