<svg width="497" height="855" viewBox="0 0 497 855" fill="none" xmlns="http://www.w3.org/2000/svg">
<g id="Girl-Type-Alice">
<g id="Girl-Body-Style1-[G]">
<path id="Vector [Base]" d="M420.37 355.89C419.49 359.06 416.38 358.41 416.38 358.41C416.38 358.41 418.46 360.14 418.46 362.35C418.46 362.75 418.39 363.17 418.23 363.6C417.1 366.52 413.55 366.35 413.55 366.35C413.55 366.35 414.64 367.81 413.19 370.55C412 372.8 409.32 372.99 409.32 372.99C409.32 372.99 408.86 374.64 407.91 375.77C406.4 377.59 403.07 377.96 403.07 377.96C403.07 377.96 391.45 376.75 376.47 368.55C376.47 368.55 374.47 366.86 372.82 364.31H372.81C361.38 359.28 307.92 335.22 283.35 314.08C283.16 313.93 282.34 313.39 282.34 313.39C280.43 311.96 278.96 310.13 277.98 308.11C277.98 308.11 277.98 308.1 277.97 308.09L239.64 234.54C238.94 239.74 238.05 244.9 236.96 249.81C231.22 275.59 218.71 301.15 210.51 341.52C210.51 341.52 229.7 378.28 234.78 419.69C234.96 420.83 235.37 425.04 235.43 425.35C235.47 425.53 262.92 549.93 272.34 603.74C272.34 603.74 272.38 603.96 272.44 604.18C272.59 604.52 272.78 604.89 272.79 604.9C273.61 607.09 295.04 638.06 297.02 711.35C297.34 722.88 300.65 766.84 302.72 786.06C302.74 786.24 302.76 786.42 302.78 786.59C302.78 786.59 303.48 789.22 304.34 793.89C304.41 794.28 304.48 794.68 304.56 795.09C304.63 795.5 304.71 795.93 304.79 796.37C304.94 797.28 305.1 798.24 305.26 799.26C305.32 799.6 305.37 799.94 305.42 800.3C305.95 803.75 306.45 807.74 306.85 812.18C307.04 814.41 307.21 816.75 307.33 819.18C307.66 825.41 307.73 832.28 307.34 839.57C307.34 839.57 301.67 838.05 293.19 838.05C284.71 838.05 276.45 839.57 276.45 839.57C276.45 839.57 275.23 830.81 274.83 819.18C274.8 818.43 274.77 817.66 274.76 816.88C274.57 807.16 274.99 796 277 786.25C276.98 786.18 276.97 786.12 276.95 786.05C266.13 742.26 238.38 640.68 230.34 621.56C230.24 621.33 229.13 618.34 229.13 618.34C201.99 547.65 186.66 506.25 171.65 460.29L162.55 459.79C164.42 501.33 167.35 571.92 167.53 609.02C167.53 609.02 167.53 609.22 167.55 609.44C167.65 609.81 167.78 610.23 167.78 610.24C168.22 612.54 184.17 646.67 173.84 719.25C172.2 730.78 169.21 768.47 168.07 787.48V791.5C167.26 793.13 167.47 797.75 162.29 798.82C161.94 798.89 161.6 798.93 161.26 798.94C159.54 801.56 156.589 805.47 154.5 808C146.5 817.69 129 840 129 840L114.5 840.5C117.67 838.43 122.92 834.98 123.96 832.62C125.49 829.15 136.29 799.67 142.22 787C142.22 787 142.23 786.95 142.26 786.85C138.91 741.74 127.85 639.71 123.14 619.56C123.08 619.31 122.49 616.09 122.49 616.09C105.28 530.4 97.27 486.05 89.31 428.01C89.31 428.01 88.83 423.43 88.88 421.35C88.88 421.35 89.05 413.16 89.43 411.33C95.83 363.78 121.17 337.15 121.17 337.15L118.91 273.78C118.91 273.78 99.78 267.06 101.05 244C101.6 233.92 103.92 225.06 117.47 214.44L19.89 225.6L18.29 225.78C17.49 225.83 16.68 225.81 15.86 225.72C7.99002 224.83 2.32002 217.8 3.06002 209.95C3.06002 209.95 3.21002 208.98 3.22002 208.74C4.11002 175.22 22.13 116.54 24.97 107.5C24.68 107.15 24.4 106.78 24.11 106.39C24.11 106.39 17.61 96.9698 20.47 72.6698L16.37 49.4898C16.18 47.7998 16.67 46.8398 18.26 46.4398C19.78 46.0598 20.8 47.5198 21.38 49.2298L26.89 69.2098C26.98 70.0298 28.05 69.9198 28.03 68.6798L25.86 40.1598C25.9 38.5298 27.26 37.2298 28.9 37.2698C30.54 37.3098 31.83 38.6798 31.79 40.3098L35.12 65.9898C35.37 66.9298 36.49 66.4698 36.47 65.6298L37.89 36.9098C37.93 35.1698 39.35 33.8598 41.08 33.8998C42.81 33.9398 44.13 35.4798 44.09 37.2098L43.19 65.0598C43.27 65.7798 43.83 65.8198 44.25 65.8298C45.04 65.8298 45.15 65.1398 45.15 65.1398L49.75 42.1398C49.79 40.4098 51.41 38.6298 53.14 38.6698C54.87 38.7198 56.23 40.1498 56.19 41.8798L51.97 67.3098C51.97 67.3098 52.46 76.3998 51.91 80.4298C51.91 80.4298 51.43 85.5798 52.79 86.3898C54.26 87.2698 63.28 77.8198 63.28 77.8198C64.42 76.5198 66.98 75.4598 68.95 76.2498C70.74 76.9698 71.47 77.9898 70.75 78.8098C70.75 78.8098 69.24 80.0998 67.92 81.6198C64.13 85.9998 58.62 93.8198 56.63 96.3998C51.66 102.88 45.87 106.03 45.87 106.03C45.87 106.03 45.09 107.33 43.7 108.85C41.49 148.58 38.59 174.58 36.26 190.66C36.11 191.7 35.96 192.7 35.82 193.66C63.81 189.03 112.87 180.92 121.3 179.61C123.08 179.25 159.02 173.32 164.49 172.66L166.54 148.4C155.79 143.17 146.61 133.19 143.19 116.93C143.14 116.95 143.1 116.97 143.06 116.99C143.06 116.99 129.64 120.75 124.99 98.5398C121.12 80.0998 138.94 84.4798 138.94 84.4798C138.94 84.4798 139.38 84.5798 140.05 85.0798C139.9 83.9098 139.72 82.8198 139.52 81.7998C139.39 75.6998 129.51 17.0098 187.09 17.0098H187.42C244.99 17.0098 235.12 75.6498 234.99 81.7498C234.81 82.6398 234.65 83.5998 234.51 84.6098C234.73 84.5098 234.86 84.4798 234.86 84.4798C234.86 84.4798 252.68 80.0998 248.82 98.5398C244.7 118.17 233.75 117.51 231.26 117.1C227.2 136.32 215.13 146.64 201.96 150.79L199.91 175.13C205.63 176.48 210.02 177.72 210.02 177.72C219.35 180.52 233.68 183.46 242.5 185.62C242.5 185.62 248.26 186.77 252.95 190.14C252.97 190.15 254.35 191.1 255.97 192.95C256.79 193.88 257.97 195.7 258.01 195.77C258.68 196.93 294.82 275.7 301.85 291.03C304.63 292.59 310.14 295.85 318.94 301.77C331.73 310.39 351.46 324.65 379.87 347.51C380.86 346.79 386.89 342.46 392.84 341.1C393.85 340.86 395.35 341.02 397.11 341.47C399.25 341.46 398.49 341.5 403.57 341.9C408.63 342.3 410.65 341.66 410.83 342.61C411.09 343.99 410.64 345.42 409.32 346.62L417.27 350.39C417.27 350.39 421.34 352.42 420.37 355.89Z" fill="#E9B4A8"/>
<g id="Group-1 [Body-Parts_Main-Color]">
<path id="Vector" d="M399.69 356.08C398.55 358.82 400.22 360.25 400.92 360.7C400.92 360.7 400.927 360.707 400.94 360.72C402.25 361.21 410.81 364.44 413.75 366.2C413.32 366.07 406.26 363.93 401.02 360.79H401C400.23 360.44 398.27 359.69 396.93 362.47C395.67 365.06 397.41 366.63 397.97 367.05C399.74 367.88 407.61 371.59 409.44 372.82C408.82 372.59 403.75 370.61 398.05 367.13C398.05 367.13 398.04 367.13 398.03 367.13C396.5 366.54 395.37 367.17 394.64 368.41C393.89 369.69 394.14 370.53 395.18 371.59C396.21 372.66 399.92 375.19 401.35 376.02C401.95 376.37 402.39 376.75 402.7 377.07C399.76 376.68 393.33 374.11 393.33 374.11C394.86 362.66 387.79 357.28 387.79 357.28C388.02 357.28 388.25 357.26 388.47 357.24C388.7 357.22 388.92 357.2 389.14 357.17C389.59 357.12 390.02 357.05 390.45 356.96C390.88 356.87 391.3 356.77 391.7 356.65C391.91 356.59 392.11 356.53 392.31 356.46C392.51 356.39 392.71 356.32 392.91 356.25C393.7 355.97 394.45 355.63 395.16 355.24C395.52 355.06 395.87 354.86 396.21 354.64C396.37 354.55 396.53 354.45 396.68 354.34C398.42 353.21 401.061 352.28 402.281 351C402.281 349.371 403.74 347.786 406.542 348.25C407.541 347.988 408.253 347.36 409 347L416.66 350.9C416.17 350.77 408.41 348.66 407.02 348.34C405.9 348.09 403.99 347.96 402.96 349.21C401.825 350.588 402.097 352.997 403.74 354.02C404.92 354.35 413.08 356.75 416.6 358.29C416.6 358.29 410.03 357.23 403.79 354.06H403.78C403.14 353.81 400.89 353.21 399.69 356.1V356.08Z" fill="#E18974"/>
<path id="Vector_2" d="M50.4303 69.6298C49.3603 69.5498 35.8603 68.5898 23.5303 73.6798C24.0603 73.3398 34.4603 66.8398 50.4303 69.6298Z" fill="#E18974"/>
<path id="Vector_3" d="M201.96 150.78L201.36 158.04C185.99 165.13 174.98 161.91 165.89 156.13L166.54 148.38C173.06 151.57 180.15 152.99 186.88 152.99H187.34C192.14 152.99 197.12 152.33 201.96 150.77V150.78Z" fill="#E18974"/>
<path id="Vector_4" d="M187.64 116.75C182.28 119.19 178.88 117.99 178.14 114.49C177.66 112.21 179 109.58 180.45 108.29C183.45 105.65 184.7 97.9997 184.72 97.9197C184.97 99.5397 184.72 105.93 181.07 110.4C180.28 111.36 179.98 112.26 180.08 113.41C180.31 116.02 182.91 118.03 187.63 116.75H187.64Z" fill="#E18974"/>
<path id="Vector_5" d="M242.4 103.51C240.32 106.98 234.85 111.04 232.39 109.74C232.52 108.45 232.64 107.14 232.75 105.83C235.14 104.17 238.82 100.62 233.38 97.0498C233.38 96.8598 233.41 96.6798 233.42 96.4998C234.01 94.3498 236.69 86.1198 242.4 88.3198C248.94 90.8498 243.69 101.35 242.4 103.51Z" fill="#E18974"/>
<path id="Vector_6" d="M142.04 109.2C140.04 111.84 133.69 107.31 131.41 103.51C130.11 101.35 124.86 90.8498 131.41 88.3198C137.95 85.7998 140.51 96.9898 140.51 96.9898C134.33 100.96 139.57 104.93 141.78 106.3C141.86 107.28 141.95 108.24 142.04 109.2Z" fill="#E18974"/>
</g>
</g>
<g id="Girl-Shoe-[F]-01">
<path id="Vector [Main-Color]" d="M176.38 806.18C176.23 806.6 166.4 833.78 165.77 854.58H158.72V824.96C167.85 813.61 175.99 806.52 176.38 806.18Z" fill="#220424"/>
<g id="Group-1 [Base]">
<path id="Vector_7" d="M313.02 838.53C313.02 854.65 308.29 854.55 302.74 854.55H280.57C280.57 854.55 271.28 854.65 271.28 847.06C271.28 838.07 271.46 810.42 275.72 793.07C275.72 793.07 275.75 792.74 275.94 792.23C272.84 813.94 276.45 839.57 276.45 839.57C276.45 839.57 284.7 838.07 293.19 838.07C301.68 838.07 307.36 839.57 307.36 839.57C308.26 823.11 306.76 808.83 305.24 799.28C308.34 807.32 313.04 822.18 313.04 838.53H313.02Z" fill="#766478"/>
<path id="Vector_8" d="M168 787.51C168 787.51 176.26 796.46 176.38 806.24C176.38 806.24 156.34 823.47 143.47 847.89C143.47 847.89 140.34 854.57 134.77 854.57H106.12C106.12 854.57 100.39 853.95 100.39 847.97C100.39 841.2 110.98 840.57 110.98 840.57L129.07 839.83C129.07 839.83 147.51 816.37 155.5 806.75C162.45 798.39 168 787.5 168 787.5V787.51Z" fill="#766478"/>
</g>
</g>
<g id="Girl-Pant-[E]-01">
<path id="Vector [Base_Main-Color]" d="M302.16 780.56L277.64 785.03L276.73 785.2C276.7 785.05 276.66 784.89 276.62 784.74C273.96 774.02 270.36 760.1 266.3 744.87C265.8 742.96 265.29 741.04 264.77 739.1C252.83 694.46 237.73 641.01 231.28 623.96C230.94 623.06 230.63 622.27 230.34 621.58C230.24 621.35 229.13 618.36 229.13 618.36C228.48 616.67 227.84 615 227.21 613.35C201.26 545.69 186.3 505.17 171.65 460.31L170.84 460.27L163.45 459.86H163.21L162.55 459.81C164.34 499.78 167.13 566.63 167.49 604.68C167.5 605.21 167.51 605.74 167.51 606.26C167.52 607.21 167.53 608.13 167.53 609.04C167.53 609.04 167.53 609.24 167.55 609.46C167.65 609.83 167.78 610.25 167.78 610.26C167.83 610.51 168.06 611.15 168.43 612.18C168.48 612.33 168.54 612.48 168.6 612.65C171.82 621.74 182.88 655.81 173.84 719.27C172.75 726.91 171.07 746.03 169.73 763.6C169.08 772.09 168.51 780.21 168.13 786.5L142.3 787.35L142.21 786.18C141.66 778.79 140.9 769.94 140 760.21C139.98 759.99 139.96 759.76 139.94 759.54C135.5 711.37 127.7 642.1 123.63 621.85C123.46 621.01 123.3 620.25 123.14 619.58C123.08 619.33 122.49 616.11 122.49 616.11C122.17 614.53 121.86 612.96 121.55 611.41C105.72 532.44 97.8399 488.96 90.3499 435.54C89.9999 433.06 89.6599 430.56 89.3099 428.03C89.3099 428.03 89.1499 426.5 89.0199 424.8C89.0099 424.8 89.0199 424.79 89.0199 424.79C88.9499 423.78 88.8899 422.72 88.8799 421.88V421.37C88.8799 421.37 89.0499 413.18 89.4299 411.35C90.8199 401.05 93.0899 391.73 95.7999 383.45C96.0099 382.84 96.2099 382.23 96.4199 381.63C96.5599 381.23 96.6899 380.84 96.8299 380.45C97.0599 379.79 97.2899 379.15 97.5299 378.51C98.0699 377.01 98.6299 375.56 99.1999 374.14C100.37 371.22 101.58 368.46 102.81 365.87C104.91 361.41 107.06 357.45 109.11 354.01C109.72 352.99 110.31 352.01 110.9 351.08C116.26 342.55 120.58 337.81 121.12 337.23L210.55 341.61C210.55 341.61 210.59 341.68 210.62 341.74C211.1 342.69 213.33 347.11 216.28 354.01C216.48 354.47 216.68 354.94 216.88 355.42C222.46 368.68 230.24 390.09 233.91 413.55C234.24 415.59 234.53 417.64 234.78 419.71C234.84 420.09 234.93 420.81 235.02 421.62C235.19 423.22 235.39 425.16 235.43 425.37C235.43 425.39 235.77 426.92 236.39 429.71C236.63 430.82 236.92 432.13 237.25 433.62C237.27 433.72 237.29 433.83 237.32 433.93C243.36 461.59 262.49 549.61 271.14 597.06C271.44 598.68 271.72 600.25 271.99 601.77C272.11 602.44 272.23 603.11 272.34 603.76C272.34 603.76 272.38 603.98 272.44 604.2C272.59 604.54 272.78 604.91 272.79 604.92C272.86 605.12 273.1 605.54 273.47 606.2C273.9 606.96 274.51 608.04 275.26 609.45C281.11 620.54 295.42 652.13 297.02 711.37C297.31 721.9 300.1 759.48 302.16 780.56Z" fill="#3E1E40"/>
<g id="Group-1">
<path id="Vector_9" d="M165.67 457.88C165.19 457.85 164.78 457.49 164.71 457C164.63 456.44 165.02 455.92 165.59 455.84C166.51 455.71 188.27 452.7 199.52 455.76C200.07 455.91 200.39 456.47 200.24 457.02C200.09 457.57 199.52 457.89 198.98 457.74C188.14 454.8 166.1 457.84 165.88 457.88C165.81 457.89 165.74 457.89 165.68 457.88H165.67Z" fill="#877488"/>
<path id="Vector_10" d="M166.92 453.93C166.62 453.91 166.33 453.77 166.14 453.51C165.81 453.05 165.91 452.41 166.37 452.07C166.56 451.94 185.11 438.56 207.95 435.69C208.51 435.62 209.03 436.02 209.1 436.58C209.17 437.15 208.77 437.66 208.21 437.73C185.89 440.54 167.77 453.6 167.59 453.73C167.39 453.88 167.16 453.94 166.93 453.93H166.92Z" fill="#877488"/>
<path id="Vector_11" d="M160.74 455.66C160.55 455.65 160.36 455.59 160.2 455.47C159.74 455.14 159.63 454.49 159.97 454.03C160.07 453.89 170.19 439.99 184.34 431.09C184.82 430.79 185.46 430.93 185.76 431.41C186.06 431.89 185.92 432.53 185.44 432.83C171.63 441.52 161.74 455.1 161.64 455.23C161.43 455.53 161.09 455.67 160.75 455.66H160.74Z" fill="#877488"/>
<path id="Vector_12" d="M138.02 456.36C137.95 456.36 137.89 456.35 137.82 456.33C137.6 456.28 116.02 450.84 104.93 452.58C104.37 452.67 103.84 452.28 103.75 451.72C103.66 451.16 104.05 450.63 104.61 450.54C116.13 448.74 137.43 454.1 138.33 454.33C138.88 454.47 139.21 455.03 139.07 455.58C138.95 456.06 138.5 456.38 138.02 456.35V456.36Z" fill="#877488"/>
<path id="Vector_13" d="M137.21 452.3C136.98 452.29 136.76 452.2 136.57 452.03C136.41 451.88 119.8 436.91 97.94 431.69C97.39 431.56 97.05 431 97.18 430.45C97.31 429.9 97.87 429.56 98.42 429.69C120.81 435.04 137.79 450.36 137.96 450.51C138.38 450.89 138.41 451.55 138.03 451.97C137.81 452.21 137.51 452.32 137.21 452.3Z" fill="#877488"/>
<path id="Vector_14" d="M143.17 454.7C142.83 454.68 142.51 454.5 142.33 454.18C142.25 454.03 133.9 439.45 121.12 429.31C120.68 428.96 120.6 428.31 120.95 427.86C121.31 427.42 121.95 427.34 122.4 427.7C135.5 438.1 144.03 453.01 144.12 453.17C144.4 453.66 144.23 454.29 143.73 454.57C143.55 454.67 143.36 454.71 143.17 454.7Z" fill="#877488"/>
<path id="Vector_15" d="M192.87 366.91C192.87 366.91 191.48 396.24 221.74 397.11C221.74 397.11 217.69 374.96 211.62 363.42C211.62 363.42 198.54 366.97 192.87 366.91Z" fill="#877488"/>
<path id="Vector_16" d="M220.26 404.37C209.39 403.78 200.86 400.23 194.84 393.82C184.43 382.71 185.37 367.35 185.41 366.7C185.45 366.14 185.93 365.94 186.49 365.94H186.51C187.08 365.94 187.5 366.27 187.47 366.84C187.46 366.99 186.56 382.09 196.36 392.53C202.62 399.2 211.87 402.51 223.86 402.46C224.43 402.46 224.89 402.89 224.89 403.46C224.89 404.03 224.43 404.48 223.87 404.48C222.64 404.48 221.44 404.44 220.26 404.38V404.37Z" fill="#877488"/>
<path id="Vector_17" d="M98.2295 384.15C97.7695 384.12 97.3695 383.79 97.2795 383.32C97.1695 382.76 97.5295 382.22 98.0895 382.11C117 378.35 120.83 359.53 120.87 359.34C120.98 358.78 121.51 358.41 122.08 358.52C122.64 358.63 123 359.17 122.9 359.72C122.86 359.92 118.75 380.09 98.4995 384.12C98.4095 384.14 98.3295 384.14 98.2395 384.14L98.2295 384.15Z" fill="#877488"/>
<path id="Vector_18" d="M117.22 358.13C117.22 358.13 113.07 374.4 99.8203 377.8C99.8203 377.8 105.94 361.78 110.81 354.5C110.81 354.5 113.71 356.4 117.23 358.13H117.22Z" fill="#877488"/>
<path id="Vector_19" d="M215.49 359.85C194.74 365.66 176.61 366.99 161.66 366.17C157.66 365.95 153.88 365.58 150.35 365.1C148.25 382.03 145.77 408.51 148.48 422.95C152.67 445.26 152.43 455.84 152.47 455.94C152.66 456.48 152.39 457.07 151.86 457.27C151.72 457.32 151.58 457.34 151.44 457.33C151.05 457.31 150.68 457.06 150.54 456.66C150.5 456.55 150.68 445.84 146.45 423.33C143.65 408.43 146.16 381.81 148.29 364.8C144.51 364.23 141.02 363.53 137.83 362.77C135.3 380.35 132.21 408.61 135.86 422.38C135.89 422.53 138.69 434.17 147.6 436.01C148.16 436.13 148.52 436.67 148.4 437.23C148.3 437.73 147.84 438.08 147.34 438.05C147.29 438.05 147.24 438.04 147.19 438.03C136.97 435.91 133.98 423.41 133.86 422.88C130.06 408.56 133.22 379.94 135.78 362.27C122.14 358.79 114.62 354.35 114.45 354.25C113.97 353.95 113.81 353.32 114.11 352.83C114.4 352.35 115.03 352.19 115.52 352.49C115.68 352.59 122.93 356.85 136.09 360.23C137.18 352.89 138.11 347.83 138.23 347.17C138.33 346.61 138.87 346.24 139.43 346.35C139.99 346.45 140.36 346.99 140.26 347.55C140.23 347.71 139.27 352.95 138.12 360.73C141.28 361.49 144.76 362.18 148.54 362.76C149.54 355.06 150.39 349.73 150.5 349.07C150.59 348.51 151.13 348.12 151.68 348.22C152.24 348.31 152.62 348.84 152.53 349.4C152.51 349.57 151.63 355.01 150.6 363.06C167.1 365.31 188.91 365.15 214.94 357.86C215.49 357.71 216.05 358.03 216.21 358.58C216.36 359.12 216.04 359.69 215.49 359.85Z" fill="#877488"/>
<path id="Vector_20" d="M148.58 355.09C148.71 352.75 146.91 350.75 144.57 350.62C142.23 350.49 140.23 352.29 140.1 354.63C139.97 356.97 141.77 358.97 144.11 359.1C146.45 359.23 148.45 357.43 148.58 355.09Z" fill="#877488"/>
</g>
</g>
<g id="Girl-Top-[D]-01">
<path id="Vector [Base]_2" d="M278.45 237.43C271.65 241.9 260.22 248.7 247.76 253.06L239.38 236.84C238.74 241.22 237.96 245.55 237.04 249.69C231.29 275.5 218.9 301.12 210.68 341.54C210.68 341.54 156.24 358.02 121.15 337.14L118.85 273.69C118.85 273.69 99.6995 266.96 100.96 243.87C101.49 234.36 103.58 225.94 115.18 216.1C108.89 216.77 101.78 217.54 94.4295 218.32C92.3295 210.46 89.4795 197.47 89.2695 184.27C89.2695 184.27 159.08 173.09 164.61 172.42C164.69 174.91 166.03 181.6 178.04 182.54C189.31 183.42 196.89 178.15 199.92 174.91C205.66 176.27 210.07 177.51 210.07 177.51C219.41 180.31 233.76 183.25 242.59 185.42C242.59 185.42 250.41 186.98 255.24 191.78C257.15 193.23 258.81 195.07 260.08 197.28C260.43 197.9 268.99 216.66 278.45 237.43Z" fill="#E8E8E8"/>
<path id="Vector [Main-Color]_2" d="M219.97 251.39C219.97 251.39 213.55 279.07 179.41 276.64C145.28 274.2 106.84 276.31 105.91 254.03C105.91 254.03 109.81 257.72 118.68 258.97C136.57 261.51 165.87 266.36 192.09 263.6C203.09 262.45 211.41 257.38 219.97 251.39Z" fill="#DFDFDF"/>
</g>
<g id="Girl-Face-[C]-01">
<path id="Vector [Mouth]" d="M187.35 131.98C197.78 131.98 200.78 125.83 200.9 125.57C201.22 124.88 200.83 124.1 200.03 123.83C199.23 123.56 198.32 123.89 197.99 124.57C197.88 124.79 195.55 129.3 187.35 129.3C179.15 129.3 176.91 124.77 176.82 124.58C176.5 123.9 175.59 123.56 174.78 123.83C173.98 124.1 173.58 124.87 173.89 125.55C174.01 125.81 176.91 131.98 187.35 131.98Z" fill="#B22929"/>
<g id="Group-1 [Eyes/brows]">
<path id="Vector_21" d="M207.61 88.6203C207.61 88.6203 213.2 88.6903 213.98 86.5603C213.98 86.5603 214.69 89.5503 211.3 90.5603C212.38 91.8903 213.06 93.8003 213.06 95.9303C213.06 99.9703 210.63 103.24 207.62 103.25C204.61 103.25 202.18 99.9803 202.17 95.9403C202.17 91.9003 204.6 88.6303 207.61 88.6303V88.6203Z" fill="#91543F"/>
<path id="Vector_22" d="M165.84 88.6203C165.84 88.6203 160.25 88.6903 159.47 86.5603C159.47 86.5603 158.76 89.5503 162.15 90.5603C161.07 91.8903 160.39 93.8003 160.39 95.9303C160.39 99.9703 162.82 103.24 165.83 103.25C168.84 103.25 171.27 99.9803 171.28 95.9403C171.28 91.9003 168.85 88.6303 165.84 88.6303V88.6203Z" fill="#91543F"/>
<path id="Vector_23" d="M200.24 77.7103C200.24 77.7103 209.2 75.0403 221.56 78.5303C221.56 78.5303 221.62 77.5903 219.27 75.5803C217.06 73.7003 208.93 71.7603 202.02 74.8303C202.02 74.8303 198.44 76.8903 200.23 77.7203L200.24 77.7103Z" fill="#91543F"/>
<path id="Vector_24" d="M172.3 77.7103C172.3 77.7103 163.34 75.0403 150.98 78.5303C150.98 78.5303 150.92 77.5903 153.27 75.5803C155.48 73.7003 163.61 71.7603 170.52 74.8303C170.52 74.8303 174.1 76.8903 172.31 77.7203L172.3 77.7103Z" fill="#91543F"/>
</g>
</g>
<g id="Girl-Hair-[B]-01">
<path id="Vector [Base]_3" d="M261.14 172.37C260.62 180.51 258.64 187.13 255.74 192.51C255.74 192.53 255.74 192.54 255.72 192.56C249.17 204.74 237.97 210.58 228.61 213.39C219.69 216.06 212.44 215.97 212.44 215.97C217.57 208.79 222.91 202.53 220.34 180.37C219.94 176.81 219.32 172.84 218.47 168.38C215.9 154.97 218.71 146.3 221.39 137.9C223.66 130.77 225.83 123.83 224.53 114.34C222.22 97.5798 232.42 80.8198 213.11 69.4498C206.45 65.5298 201.17 60.6998 197.09 55.9698C194.06 52.4598 191.67 49.0098 189.87 46.0298C186.67 40.7298 185.28 36.9198 185.28 36.9198C185.28 36.9198 183.29 40.8198 179.17 46.6898C178.79 47.2198 178.4 47.7798 177.99 48.3398C177.9 48.4698 177.8 48.6098 177.7 48.7398C177.45 49.0998 177.18 49.4498 176.91 49.8198C176.26 50.6998 175.56 51.6098 174.82 52.5398C174.5 52.9498 174.17 53.3798 173.83 53.7998C173.35 54.3998 172.85 55.0098 172.33 55.6298C167.9 60.9598 162.29 66.8898 155.46 72.6698C138.34 87.1398 147.22 97.5198 145.43 114.34C145.06 117.78 144.92 120.78 144.94 123.44C145.09 143.82 155.12 144.24 152.48 168.38C152.25 170.52 152.05 172.54 151.88 174.46C149.42 201.82 152.94 208.19 158.52 215.97C158.52 215.97 146.2 216.11 133.93 210.11C124.68 205.59 115.46 197.57 111.59 183.34C111.39 182.63 111.21 181.91 111.05 181.17C110.44 178.45 110.02 175.53 109.82 172.37C106.12 114.34 116.3 125.67 127.75 46.4098C128.08 44.1198 128.63 41.7798 129.39 39.4198C129.55 38.9098 129.73 38.3998 129.91 37.8898C130.09 37.3798 130.28 36.8698 130.49 36.3598C130.85 35.4198 131.26 34.4798 131.69 33.5498C131.73 33.4798 131.76 33.3998 131.8 33.3198C132 32.8898 132.21 32.4598 132.43 32.0298C132.97 30.9598 133.54 29.8998 134.16 28.8598C134.44 28.3698 134.74 27.8898 135.04 27.4098C136.21 25.5598 137.5 23.7598 138.89 22.0598C139.26 21.5998 139.65 21.1398 140.04 20.6998C141.21 19.3698 142.44 18.1098 143.73 16.9198C154.42 7.08982 169.27 2.65982 184.86 12.6298C199.13 3.50982 212.72 6.45982 223.13 14.5698C224.11 15.3298 225.05 16.1398 225.97 16.9798C226.43 17.3998 226.88 17.8398 227.32 18.2798C227.77 18.7198 228.2 19.1698 228.63 19.6298C229.06 20.0898 229.48 20.5598 229.89 21.0298C230.3 21.5098 230.71 21.9898 231.1 22.4798C231.5 22.9698 231.89 23.4698 232.26 23.9698C233.02 24.9798 233.74 26.0098 234.42 27.0598C234.76 27.5898 235.1 28.1198 235.42 28.6598C235.72 29.1598 236.01 29.6598 236.29 30.1598C236.46 30.4498 236.62 30.7498 236.78 31.0498C236.83 31.1298 236.87 31.2098 236.91 31.2898C237.01 31.4798 237.11 31.6698 237.21 31.8598C237.23 31.8898 237.24 31.9198 237.25 31.9498C237.52 32.4698 237.79 32.9898 238.04 33.5198C238.05 33.5398 238.05 33.5598 238.06 33.5798C238.36 34.1998 238.65 34.8398 238.91 35.4698C239 35.6598 239.08 35.8398 239.16 36.0298C239.17 36.0698 239.19 36.1198 239.21 36.1598C239.25 36.2498 239.29 36.3498 239.32 36.4398C239.44 36.7398 239.56 37.0298 239.67 37.3298C239.84 37.7498 240 38.1798 240.15 38.5998C241.08 41.2298 241.79 43.8598 242.21 46.4098C253.75 116.14 264.83 114.34 261.14 172.37Z" fill="#FBD3AF"/>
<g id="Group-1 [Main-Color]">
<path id="Vector_25" d="M218.47 168.38C219.32 172.84 219.94 176.81 220.34 180.37C216.61 179.46 213.06 178.54 210.03 177.63C210.03 177.63 205.64 176.39 199.92 175.04L201.37 157.92L201.98 150.67C209.15 148.4 216 144.29 221.39 137.9C218.71 146.3 215.9 154.97 218.47 168.38Z" fill="#FFBC81"/>
<path id="Vector_26" d="M166.55 148.35L165.9 156.03L164.5 172.57C159.03 173.23 154.85 174 154.85 174C153.85 174.15 152.86 174.31 151.88 174.46C152.05 172.54 152.25 170.52 152.48 168.38C155.12 144.24 145.09 143.82 144.94 123.44C149.22 135.9 157.31 143.88 166.55 148.35Z" fill="#FFBC81"/>
<path id="Vector_27" d="M223.12 14.5698C211.37 34.0898 200.13 43.2698 189.87 46.0298C191.67 49.0098 194.06 52.4598 197.09 55.9698C214.51 53.7398 229 46.5198 240.15 38.5998C236.96 29.6398 230.93 20.6498 223.12 14.5698Z" fill="#FFBC81"/>
<path id="Vector_28" d="M143.72 16.9197C137.06 23.0397 132 31.2697 129.38 39.4197C144.81 48.6497 159.17 53.6397 172.32 55.6297C175.04 52.3697 177.31 49.3297 179.16 46.6997C163.59 44.4697 151.09 28.7997 143.72 16.9197Z" fill="#FFBC81"/>
<path id="Vector_29" d="M184.86 12.6296C184.86 12.6296 182.37 24.8596 185.28 36.9196C185.28 36.9196 186.4 23.9396 184.86 12.6296Z" fill="#FFBC81"/>
</g>
</g>
<g id="Girl-Accessory-[A]-01">
<g id="Group-3 [Base]">
<path id="Vector_30" d="M340.852 403.041L338.356 408.498L399.285 436.367L401.781 430.911L340.852 403.041Z" fill="#EEC66D"/>
<path id="Vector_31" d="M374.615 370.093L372.951 373.731L403.87 387.873L405.534 384.236L374.615 370.093Z" fill="#EEC66D"/>
<path id="Vector_32" d="M403.71 354.01C404.32 354.18 406.81 354.91 409.56 355.79L409.35 356.39C407.59 355.78 405.66 355.02 403.76 354.05H403.75C403.11 353.8 400.86 353.2 399.66 356.09C398.52 358.83 400.19 360.26 400.89 360.71C400.89 360.71 400.897 360.717 400.91 360.73C401.59 360.98 404.2 361.97 406.97 363.1L406.77 363.67C404.86 362.87 402.82 361.89 400.99 360.8C400.98 360.8 400.97 360.79 400.97 360.79C400.2 360.44 398.24 359.69 396.9 362.47C395.64 365.06 397.38 366.63 397.94 367.05C398.92 367.51 401.8 368.86 404.46 370.18L404.32 370.57C402.48 369.68 400.3 368.52 398.02 367.13C398.02 367.13 398.01 367.13 398 367.12C396.47 366.53 395.34 367.16 394.61 368.4C393.86 369.68 394.11 370.52 395.15 371.58C396.18 372.65 399.89 375.18 401.32 376.01C401.65 376.21 401.94 376.41 402.18 376.62L402.06 376.96L401.34 378.99L384.41 371.25L380.59 369.5L391.98 349.5C396.09 349.88 399.44 349.82 402.11 349.43C402.33 349.41 402.54 349.38 402.74 349.34C402.77 349.33 402.81 349.33 402.84 349.32L402.75 349.44C402.71 349.51 402.67 349.57 402.63 349.65C402.59 349.72 402.55 349.8 402.52 349.89C402.44 350.08 402.37 350.29 402.32 350.53C401.89 352.64 403.18 353.68 403.71 354.01Z" fill="#EEC66D"/>
<path id="Vector_33" d="M488.37 270.34L485.04 277.61L482.22 276.32C481.98 276.78 481.71 277.29 481.42 277.84C481.09 278.47 480.72 279.14 480.34 279.86C479.81 280.84 479.23 281.9 478.6 283.02C478.43 283.33 478.25 283.64 478.08 283.96C477.72 284.59 477.35 285.24 476.97 285.91C476.77 286.25 476.58 286.59 476.38 286.93C475.98 287.61 475.57 288.31 475.15 289.03C475.03 289.24 474.9 289.45 474.78 289.66C474.6 289.95 474.41 290.26 474.23 290.57C474.1 290.78 473.97 291 473.84 291.22C468.09 300.76 460.34 312.35 451.53 322.15C449.96 323.9 448.36 325.59 446.73 327.19C436.52 337.28 425.21 344.3 414.1 342.95L412.37 347.84L412.09 348.63L411.76 349.56C409.7 349.02 407.64 348.47 406.99 348.32C406.88 348.3 406.77 348.27 406.65 348.26C407.44 347.93 408.11 347.56 408.66 347.16C408.81 347.05 408.96 346.94 409.09 346.82C409.17 346.76 409.24 346.69 409.31 346.62C410.64 345.42 411.08 343.99 410.82 342.61C410.79 342.42 410.68 342.29 410.48 342.21C410.41 342.18 410.34 342.15 410.25 342.14C409.33 341.93 407.25 342.19 403.57 341.9C399.25 341.56 399.16 341.48 397.9 341.47H396.85C396.77 341.45 396.68 341.43 396.58 341.41L396.91 340.83L399.57 336.16C391.71 328.78 389.59 316.21 390.36 302.46C390.51 299.8 390.77 297.1 391.11 294.38C392.67 282.18 396 269.68 399.24 259.49C399.34 259.15 399.45 258.81 399.56 258.48C399.78 257.81 400 257.15 400.21 256.5C400.92 254.35 401.62 252.33 402.28 250.47C402.99 248.48 403.66 246.66 404.26 245.06C404.4 244.69 404.54 244.34 404.67 244C404.76 243.75 404.86 243.51 404.95 243.28C405.11 242.88 405.26 242.5 405.4 242.14C405.5 241.86 405.61 241.59 405.71 241.33L402.29 239.77L405.61 232.49L488.37 270.34Z" fill="#EEC66D"/>
</g>
<g id="Group-2 [Main-Color]">
<path id="Vector_34" d="M359.305 367.498L342.666 403.873L399.957 430.079L416.596 393.704L359.305 367.498Z" fill="#EAA613"/>
<path id="Vector_35" d="M404.94 380.63L403.7 383.36L376.41 370.88L377.66 368.15L404.94 380.63Z" fill="#EAA613"/>
<path id="Vector_36" d="M414.1 342.96L412.37 347.85C411.23 347.53 410.13 347.19 409.09 346.83C409.17 346.77 409.24 346.7 409.31 346.63C410.64 345.43 411.08 344 410.82 342.62C410.79 342.43 410.68 342.3 410.48 342.22C411.68 342.58 412.89 342.82 414.1 342.96Z" fill="#EAA613"/>
<path id="Vector_37" d="M410.25 342.14C409.33 341.93 407.25 342.19 403.57 341.9C399.25 341.56 399.16 341.48 397.9 341.47C397.55 341.25 397.22 341.04 396.91 340.83L399.57 336.16C401.34 337.84 403.41 339.25 405.8 340.34L407.28 341.02C408.26 341.47 409.25 341.85 410.25 342.14Z" fill="#EAA613"/>
<path id="Vector_38" d="M442.14 275.59C442.14 275.59 441.97 275.51 441.83 275.51L426.66 274.87C426.52 274.87 426.47 274.99 426.47 275.14C426.46 275.48 426.56 276.02 426.82 276.06L431.1 277.11C431.47 277.21 431.63 277.63 431.47 278.12C430.56 280.58 427 288.67 425.73 291.59C424.87 293.64 420.67 303.26 419.88 304.86C419.66 305.32 419.21 305.25 418.83 305.15L415.27 304.08C415.01 304.03 414.68 304.44 414.6 304.61C414.55 304.73 414.52 304.79 414.64 304.84C415.99 305.39 419.2 306.79 422.56 308.32C425.91 309.86 428.61 311.16 430.37 312.04C430.55 312.12 430.57 312.06 430.63 311.94C430.73 311.71 430.74 311.23 430.6 311.09L427.66 309.26C427.31 308.95 426.72 308.55 426.96 308.03C427.28 307.33 431.13 299.37 433.44 294.48C434.92 291.24 442.02 277.07 442.37 276.32C442.5 276.03 442.43 275.72 442.14 275.59Z" fill="#EAA613"/>
<path id="Vector_39" d="M482.22 276.32C481.7 277.31 481.09 278.49 480.36 279.87L477.19 278.42C437.9 346.29 412.35 338.91 412.35 338.91C438.43 322.37 455.9 279.8 459.53 270.34L404.26 245.06C404.83 243.59 405.32 242.36 405.72 241.34L482.22 276.32Z" fill="#EAA613"/>
<path id="Vector_40" d="M491.73 312.29C482.75 324.59 464.42 333.12 446.25 327.67C448.21 325.76 450.13 323.73 452.01 321.63C465.67 324.5 479.29 317.38 486.19 307.93C489.18 303.83 491.32 298.28 488.35 294.97C482.31 288.22 477.48 289.71 473.84 291.22C475.64 288.25 477.23 285.48 478.6 283.02C482.9 282.89 488.14 284.41 493.52 290.41C498.33 295.78 497.61 304.24 491.73 312.29Z" fill="#EAA613"/>
<path id="Vector_41" d="M402.28 250.47C401.23 253.42 400.09 256.76 398.95 260.38C398.11 259.39 397.68 258.07 397.29 256.84C396.07 253 394.39 247.74 384.73 247.58C380.29 247.5 377.48 252.76 376.34 257.7C373.5 269.99 377.82 286.44 391.11 294.38C390.77 297.1 390.51 299.8 390.36 302.46C372.18 292.86 365.79 272.03 369.42 256.35C371.66 246.64 377.59 240.57 384.8 240.69C395.5 240.87 400.07 246.06 402.28 250.47Z" fill="#EAA613"/>
</g>
<g id="Group-1_2">
<path id="Vector_42" d="M366.07 381.574L358.583 397.942L395.868 414.997L403.355 398.628L366.07 381.574Z" fill="white"/>
<path id="Vector_43" d="M404.16 335.16C404.16 335.16 381.87 320.67 407.51 246.55L416.2 250.52C411.99 259.96 393.58 304.31 404.16 335.16Z" fill="white"/>
</g>
</g>
</g>
</svg>
