<svg width="12" height="12" viewBox="0 0 12 12" fill="none" xmlns="http://www.w3.org/2000/svg">
<path d="M6.88 2.36692L5.12534 0.242505C5.06931 0.175202 4.99987 0.119389 4.92109 0.0783583C4.84232 0.0373274 4.75581 0.0119098 4.66667 0.00360497C4.4877 -0.0119355 4.30961 0.0413995 4.17134 0.151955L1.44734 2.36692H6.88Z" fill="white"/>
<path d="M5.33333 8.14677V7.50456C5.33333 6.82327 5.61428 6.16988 6.11438 5.68813C6.61448 5.20638 7.29276 4.93574 8 4.93574H11.3333V4.29354C11.3333 4.12321 11.2631 3.95987 11.1381 3.83943C11.013 3.71899 10.8435 3.65133 10.6667 3.65133H0.666667C0.489856 3.65133 0.320286 3.71899 0.195262 3.83943C0.0702379 3.95987 0 4.12321 0 4.29354V11.3578C0 11.5281 0.0702379 11.6915 0.195262 11.8119C0.320286 11.9323 0.489856 12 0.666667 12H10.6667C10.8435 12 11.013 11.9323 11.1381 11.8119C11.2631 11.6915 11.3333 11.5281 11.3333 11.3578V10.7156H8C7.29276 10.7156 6.61448 10.4449 6.11438 9.9632C5.61428 9.48145 5.33333 8.82806 5.33333 8.14677Z" fill="white"/>
<path d="M11.3333 6.22015H8C7.64638 6.22015 7.30724 6.35547 7.05719 6.59635C6.80714 6.83722 6.66667 7.16392 6.66667 7.50456V8.14677C6.66667 8.48742 6.80714 8.81411 7.05719 9.05498C7.30724 9.29586 7.64638 9.43118 8 9.43118H11.3333C11.5101 9.43118 11.6797 9.36352 11.8047 9.24308C11.9298 9.12265 12 8.9593 12 8.78897V6.86236C12 6.69203 11.9298 6.52869 11.8047 6.40825C11.6797 6.28781 11.5101 6.22015 11.3333 6.22015ZM9 8.46787C8.86815 8.46787 8.73925 8.43021 8.62962 8.35964C8.51999 8.28907 8.43454 8.18878 8.38408 8.07143C8.33362 7.95408 8.32042 7.82495 8.34614 7.70038C8.37187 7.5758 8.43536 7.46137 8.5286 7.37156C8.62183 7.28174 8.74062 7.22058 8.86994 7.1958C8.99926 7.17102 9.1333 7.18374 9.25512 7.23235C9.37694 7.28095 9.48106 7.36327 9.55431 7.46888C9.62757 7.57449 9.66667 7.69865 9.66667 7.82567C9.66667 7.99599 9.59643 8.15934 9.47141 8.27977C9.34638 8.40021 9.17681 8.46787 9 8.46787Z" fill="white"/>
<path d="M7.842 2.36692H9.54667L7.792 0.242505C7.68185 0.109141 7.52121 0.023393 7.34542 0.00412308C7.16964 -0.0151468 6.99311 0.0336403 6.85467 0.139752C6.71622 0.245863 6.62721 0.400607 6.60721 0.569941C6.5872 0.739275 6.63785 0.909329 6.748 1.04269L7.842 2.36692Z" fill="white"/>
</svg>
