<svg width="42" height="42" viewBox="0 0 42 42" fill="none" xmlns="http://www.w3.org/2000/svg">
<g clipPath="url(#clip0_355_799)">
<path d="M41 21C41 32.0457 32.0457 41 21 41C9.95431 41 1 32.0457 1 21C1 9.95431 9.95431 1 21 1C32.0457 1 41 9.95431 41 21Z" fill="#38AFFF" stroke="#ACDCFD" strokeWidth="2"/>
<path d="M25.3848 22.5748C25.2168 22.5748 25.0572 22.5706 24.8892 22.5664C24.9732 22.852 25.0194 23.1502 25.0194 23.4568C25.0194 26.2708 21.252 28.5598 16.6194 28.5598C15.5988 28.5598 14.6118 28.4506 13.6794 28.2322C13.5324 28.1944 13.377 28.2364 13.2678 28.333L10.4958 30.8068L10.8318 27.4468C10.8486 27.2704 10.7688 27.0982 10.6134 27.0058C9.07616 26.044 8.22356 24.784 8.22356 23.461C8.22356 20.7898 11.6256 18.589 15.939 18.3832C15.7626 18.0976 15.6114 17.7952 15.4896 17.4844C10.8822 17.8456 7.29956 20.3866 7.29956 23.461C7.29956 25.0402 8.21516 26.5102 9.88256 27.6358L9.45836 31.8988C9.43316 32.0878 9.53816 32.2684 9.71036 32.3566C9.77336 32.3902 9.84896 32.407 9.92036 32.407C10.0296 32.407 10.143 32.365 10.2312 32.2894L13.713 29.1814C14.637 29.3788 15.6198 29.4838 16.6236 29.4838C21.7686 29.4838 25.9476 26.779 25.9476 23.4568C25.9476 23.1544 25.914 22.8604 25.8468 22.5664C25.6956 22.5748 25.5402 22.5748 25.389 22.5748H25.3848Z" fill="white"/>
<path d="M34.7004 15.6195C34.7004 12.3015 30.5214 9.59668 25.3806 9.59668C20.2398 9.59668 16.0566 12.3015 16.0566 15.6195C16.0566 18.9375 20.244 21.6465 25.3806 21.6465C26.3886 21.6465 27.3672 21.5457 28.2996 21.3441L31.7814 24.4479C31.8696 24.5277 31.9746 24.5697 32.088 24.5697C32.1636 24.5697 32.2308 24.5529 32.3022 24.5193C32.4744 24.4311 32.571 24.2505 32.5542 24.0615L32.13 19.7943C33.7974 18.6729 34.7088 17.2029 34.7088 15.6237L34.7004 15.6195ZM31.3866 19.1685C31.2396 19.2609 31.1556 19.4331 31.1724 19.6095L31.5042 22.9695L28.7364 20.4957C28.6482 20.4201 28.539 20.3781 28.4256 20.3781C28.392 20.3781 28.3542 20.3823 28.3206 20.3907C27.3966 20.6091 26.4054 20.7183 25.3806 20.7183C20.7522 20.7183 16.9806 18.4293 16.9806 15.6153C16.9806 12.8013 20.748 10.5165 25.3806 10.5165C30.0132 10.5165 33.7764 12.8055 33.7764 15.6153C33.7764 16.9383 32.928 18.1983 31.3866 19.1601V19.1685Z" fill="white"/>
<path fill-rule="evenodd" clip-rule="evenodd" d="M33.7765 15.6242C33.7765 16.9472 32.9281 18.2072 31.3867 19.169V19.1774C31.2355 19.2698 31.1557 19.442 31.1725 19.6184L31.5043 22.9784L28.7365 20.5046C28.6483 20.429 28.5349 20.387 28.4257 20.387C28.3963 20.387 28.3585 20.3912 28.3207 20.3996C27.3967 20.618 26.4055 20.7272 25.3807 20.7272C20.7481 20.7272 16.9807 18.434 16.9807 15.6242C16.9807 12.8144 20.7481 10.5254 25.3807 10.5254C30.0133 10.5254 33.7765 12.8144 33.7765 15.6242ZM25.9434 12.782C26.7456 11.9798 28.0476 11.9798 28.8498 12.782C29.2362 13.1726 29.4504 13.685 29.4504 14.2352C29.4504 14.7854 29.2404 15.2978 28.8498 15.6884L25.7586 18.7754C25.6746 18.8636 25.5612 18.914 25.4352 18.914C25.3092 18.914 25.1958 18.8636 25.1076 18.7754L22.0206 15.6884C21.6342 15.2978 21.42 14.7854 21.42 14.2352C21.42 13.685 21.63 13.1726 22.0206 12.782C22.407 12.3956 22.9194 12.1814 23.4696 12.1814C24.0198 12.1814 24.5322 12.3914 24.9228 12.782L25.4352 13.2944L25.9434 12.782ZM25.4352 17.7968L28.1988 15.0332H28.1946C28.4046 14.8232 28.5222 14.5418 28.5222 14.2394C28.5222 13.937 28.4088 13.6556 28.1946 13.4414C27.7578 12.9962 27.0396 12.9962 26.5986 13.4414L25.7544 14.2772C25.5738 14.4578 25.284 14.4578 25.1034 14.2772L24.2676 13.4414C24.0534 13.223 23.7636 13.1096 23.4654 13.1096C23.1672 13.1096 22.8858 13.223 22.6716 13.4414C22.4616 13.6556 22.344 13.9412 22.344 14.2394C22.344 14.5376 22.4574 14.819 22.6716 15.0332L25.4352 17.7968Z" fill="#ACDCFD"/>
<path d="M20.0299 20.7618C19.2277 19.9596 17.9257 19.9596 17.1235 20.7618L16.6153 21.2742L16.1029 20.7618C15.7123 20.3712 15.1999 20.1612 14.6497 20.1612C14.0995 20.1612 13.5871 20.3754 13.2007 20.7618C12.8101 21.1524 12.6001 21.6648 12.6001 22.215C12.6001 22.7652 12.8143 23.2776 13.2007 23.6682L16.2877 26.7552C16.3759 26.8434 16.4893 26.8938 16.6153 26.8938C16.7413 26.8938 16.8547 26.8434 16.9387 26.7552L20.0299 23.6682C20.4205 23.2776 20.6305 22.7652 20.6305 22.215C20.6305 21.6648 20.4163 21.1524 20.0299 20.7618ZM19.3789 23.013L16.6153 25.7766L13.8517 23.013C13.6375 22.7988 13.5241 22.5174 13.5241 22.2192C13.5241 21.921 13.6417 21.6354 13.8517 21.4212C14.0659 21.2028 14.3473 21.0894 14.6455 21.0894C14.9437 21.0894 15.2335 21.2028 15.4477 21.4212L16.2835 22.257C16.4641 22.4376 16.7539 22.4376 16.9345 22.257L17.7787 21.4212C18.2197 20.976 18.9379 20.976 19.3747 21.4212C19.5889 21.6354 19.7023 21.9168 19.7023 22.2192C19.7023 22.5216 19.5847 22.803 19.3747 23.013H19.3789Z" fill="white"/>
</g>
<defs>
<clipPath id="clip0_355_799">
<rect width="42" height="42" fill="white"/>
</clipPath>
</defs>
</svg>
