<svg width="42" height="42" viewBox="0 0 42 42" fill="none" xmlns="http://www.w3.org/2000/svg">
<g clip-path="url(#clip0_355_793)">
<path d="M41 21C41 32.0457 32.0457 41 21 41C9.95431 41 1 32.0457 1 21C1 9.95431 9.95431 1 21 1C32.0457 1 41 9.95431 41 21Z" fill="#657DFF" stroke="#BEC8FD" stroke-width="2"/>
<path d="M31.0968 21.483L29.6562 19.5804C29.358 19.1898 29.169 18.711 29.1102 18.1818C28.6062 13.818 24.6204 10.6596 20.2272 11.151C16.6194 11.5542 13.6626 14.4522 13.1964 18.0432C12.8772 20.5338 13.692 22.9782 15.4392 24.7464C16.2456 25.5654 16.6908 26.6028 16.6908 27.6696V30.5382C16.6908 30.7986 16.9008 31.0002 17.1528 31.0002H24.8892C25.1454 31.0002 25.3512 30.7986 25.3512 30.5382V27.8124L27.279 27.9468C27.7452 27.9762 28.1904 27.825 28.5348 27.5142C28.875 27.1992 29.0766 26.775 29.0892 26.313L29.1606 23.8182L29.8956 23.835C30.5886 23.8518 31.2018 23.3814 31.3614 22.7136C31.4622 22.281 31.3698 21.8358 31.101 21.483H31.0968ZM30.4584 22.4994C30.3996 22.743 30.1686 22.9194 29.9166 22.911L28.7154 22.8774C28.4592 22.8732 28.245 23.0706 28.2366 23.3268L28.1526 26.2836C28.1484 26.4936 28.056 26.6868 27.9006 26.8254C27.741 26.9682 27.5436 27.0396 27.3294 27.0228L24.906 26.8506C24.7758 26.8422 24.6498 26.8884 24.5532 26.9724C24.4608 27.0606 24.4104 27.1866 24.4104 27.3126V30.072H17.6022V27.6654C17.6022 26.355 17.0646 25.0866 16.0818 24.0954C14.5404 22.5246 13.818 20.3658 14.1036 18.1608C14.5152 14.9856 17.1318 12.4194 20.3154 12.0666C24.2046 11.6298 27.7326 14.4228 28.182 18.2826C28.2618 18.9756 28.5096 19.614 28.9044 20.1348L30.3492 22.0374C30.4458 22.1676 30.4836 22.3356 30.4458 22.491L30.4584 22.4994Z" fill="white"/>
<path d="M30.3618 22.0412L28.917 20.1386C28.5222 19.622 28.2744 18.9836 28.1946 18.2864C27.7452 14.4266 24.2172 11.6336 20.328 12.0704C17.1402 12.4232 14.5278 14.9894 14.1162 18.1646C13.8306 20.3696 14.553 22.5284 16.0944 24.0992C17.0772 25.0904 17.6148 26.3588 17.6148 27.6692V30.0758H24.423V27.3164C24.423 27.1862 24.4734 27.0602 24.5658 26.9762C24.6624 26.8922 24.7884 26.846 24.9186 26.8544L27.342 27.0266C27.5562 27.0392 27.7536 26.972 27.9132 26.8292C28.0644 26.6906 28.1568 26.4932 28.1652 26.2874L28.2492 23.3306C28.2534 23.0744 28.4718 22.877 28.728 22.8812L29.9292 22.9148C30.1812 22.9232 30.408 22.7468 30.471 22.5032C30.5088 22.3478 30.471 22.1798 30.3744 22.0496L30.3618 22.0412ZM23.877 18.8072L21.1134 21.5708L18.3498 18.8072C18.1356 18.593 18.0222 18.3116 18.0222 18.0134C18.0222 17.7152 18.1398 17.4296 18.3498 17.2154C18.564 16.997 18.8454 16.8836 19.1436 16.8836C19.4418 16.8836 19.7316 16.997 19.9458 17.2154L20.7816 18.0512C20.9622 18.2318 21.252 18.2318 21.4326 18.0512L22.2768 17.2154C22.7178 16.7702 23.436 16.7702 23.8728 17.2154C24.087 17.4296 24.2004 17.711 24.2004 18.0134C24.2004 18.3158 24.0828 18.5972 23.8728 18.8072H23.877Z" fill="#BEC8FD"/>
<path d="M24.5279 16.5567C23.7257 15.7545 22.4237 15.7545 21.6215 16.5567L21.1133 17.0691L20.6009 16.5567C20.2103 16.1661 19.6979 15.9561 19.1477 15.9561C18.5975 15.9561 18.0851 16.1703 17.6987 16.5567C17.3081 16.9473 17.0981 17.4597 17.0981 18.0099C17.0981 18.5601 17.3123 19.0725 17.6987 19.4631L20.7857 22.5501C20.8739 22.6383 20.9873 22.6887 21.1133 22.6887C21.2393 22.6887 21.3527 22.6383 21.4367 22.5501L24.5279 19.4631C24.9185 19.0725 25.1285 18.5601 25.1285 18.0099C25.1285 17.4597 24.9143 16.9473 24.5279 16.5567ZM23.8769 18.8079L21.1133 21.5715L18.3497 18.8079C18.1355 18.5937 18.0221 18.3123 18.0221 18.0141C18.0221 17.7159 18.1397 17.4303 18.3497 17.2161C18.5639 16.9977 18.8453 16.8843 19.1435 16.8843C19.4417 16.8843 19.7315 16.9977 19.9457 17.2161L20.7815 18.0519C20.9621 18.2325 21.2519 18.2325 21.4325 18.0519L22.2767 17.2161C22.7177 16.7709 23.4359 16.7709 23.8727 17.2161C24.0869 17.4303 24.2003 17.7117 24.2003 18.0141C24.2003 18.3165 24.0827 18.5979 23.8727 18.8079H23.8769Z" fill="white"/>
</g>
<defs>
<clipPath id="clip0_355_793">
<rect width="42" height="42" fill="white"/>
</clipPath>
</defs>
</svg>
