<svg width="87" height="88" viewBox="0 0 87 88" fill="none" xmlns="http://www.w3.org/2000/svg">
<rect y="0.5" width="87" height="87" rx="43.5" fill="#66E3E3"/>
<path d="M43.0555 60.0671L43.4922 63.1156C43.6194 64.0176 43.9957 64.8663 44.5789 65.5666C45.1621 66.2668 45.9291 66.7909 46.794 67.08C47.6588 67.3691 48.5871 67.4118 49.4749 67.2033C50.3626 66.9948 51.1746 66.5433 51.8198 65.8995L57.0239 60.7018C57.4337 60.2934 57.6858 59.7535 57.7355 59.1775L58.4299 51.0121C53.5177 54.1366 47.7394 57.4621 43.0555 60.0671Z" fill="white"/>
<path d="M66.1931 24.2784C66.0702 23.5482 65.7224 22.8745 65.1982 22.3509C64.674 21.8274 63.9995 21.4801 63.2684 21.3573C60.9714 20.9527 58.6447 20.7387 56.3124 20.7177C52.8343 20.4189 49.3714 21.442 46.6157 23.5825C42.2531 27.9396 33.0128 44.4739 30.1372 49.7084C29.8836 50.1718 29.7879 50.705 29.8645 51.2276C29.9411 51.7501 30.1858 52.2335 30.5616 52.605L34.9119 56.9426C35.1383 57.1732 35.4081 57.3569 35.7058 57.4831C36.0035 57.6093 36.3232 57.6754 36.6466 57.6777C37.0542 57.6787 37.4554 57.5758 37.8121 57.3788C43.053 54.5091 59.6076 45.2801 63.9701 40.9229C67.8125 37.0681 66.9194 28.4886 66.1931 24.2784ZM57.0239 37.4455C56.3375 38.1308 55.4632 38.5974 54.5113 38.7863C53.5594 38.9753 52.5729 38.8781 51.6763 38.5071C50.7797 38.1361 50.0134 37.5079 49.4743 36.7019C48.9352 35.896 48.6474 34.9484 48.6474 33.9791C48.6474 33.0099 48.9352 32.0623 49.4743 31.2564C50.0134 30.4504 50.7797 29.8222 51.6763 29.4512C52.5729 29.0802 53.5594 28.983 54.5113 29.172C55.4632 29.3609 56.3375 29.8275 57.0239 30.5128C57.4798 30.9679 57.8415 31.5083 58.0882 32.1031C58.3349 32.6979 58.4619 33.3353 58.4619 33.9791C58.4619 34.623 58.3349 35.2604 58.0882 35.8552C57.8415 36.45 57.4798 36.9904 57.0239 37.4455Z" fill="white"/>
<path d="M36.5117 29.111L28.3387 29.8045C27.7631 29.8541 27.2236 30.1049 26.815 30.5128L21.6059 35.7105C20.9609 36.354 20.5081 37.1642 20.2983 38.0503C20.0885 38.9364 20.13 39.8634 20.4182 40.7273C20.7063 41.5912 21.2297 42.3578 21.9297 42.9412C22.6296 43.5246 23.4784 43.9017 24.381 44.0303L27.4333 44.4665C30.0439 39.7883 33.371 34.0171 36.5117 29.111Z" fill="white"/>
</svg>
