<svg width="60" height="74" viewBox="0 0 60 74" fill="none" xmlns="http://www.w3.org/2000/svg">
<path d="M14.4803 55.2951L19.2742 51.717V48.7038C18.9158 48.6679 18.5574 48.7576 18.2527 48.9728L13.7634 52.3178L7.72401 46.2735L11.0842 41.7807C11.362 41.3951 11.4427 40.866 11.2545 40.4087L9.4086 35.9607C9.21147 35.5123 8.79928 35.1894 8.30645 35.1087L2.77778 34.2927L2.77778 25.7554L8.29749 24.9483C8.78136 24.8766 9.21147 24.5537 9.38172 24.0964L11.2366 19.6394C11.4337 19.191 11.371 18.6619 11.0663 18.2674L7.72401 13.7745L13.7634 7.73029L18.2437 11.0842C18.6469 11.3801 19.1667 11.4519 19.6147 11.2546L24.086 9.41622C24.534 9.21893 24.8566 8.80642 24.9283 8.32216L25.7437 2.78908L34.2742 2.78908L35.0896 8.32216C35.1613 8.80642 35.4749 9.2279 35.9409 9.40725L40.4032 11.2546C40.8513 11.4519 41.3799 11.3891 41.7742 11.0842L46.2545 7.73029L52.2939 13.7745L48.9516 18.2674C48.6559 18.6709 48.5842 19.191 48.7814 19.6394L50.6272 24.1053C50.8154 24.5627 51.2276 24.8855 51.7115 24.9573L57.2401 25.7733V34.3106L51.6936 35.1087C51.2097 35.1805 50.7975 35.5033 50.6093 35.9607L48.7634 40.4266C48.5753 40.8839 48.6469 41.422 48.9337 41.7987L52.2849 46.2825L46.2455 52.3268L41.7563 48.9818C41.5323 48.8114 41.2545 48.7128 40.9498 48.7128V51.8694L45.5287 55.2861C46.0842 55.6986 46.8638 55.6358 47.3477 55.1516L55.0896 47.4035C55.5824 46.9103 55.6362 46.139 55.224 45.583L51.6308 40.7674L52.8674 37.7721L58.8082 36.9023C59.4893 36.8126 60 36.2118 59.991 35.5212L60 24.5537C60 23.8542 59.4892 23.2713 58.7993 23.1727L52.8674 22.3118L51.6308 19.3166L55.224 14.5009C55.6362 13.9449 55.5824 13.1558 55.0986 12.6715L47.3566 4.9234C47.1237 4.69024 46.8011 4.54675 46.4785 4.51088C46.129 4.48398 45.7975 4.58262 45.5287 4.77991L40.7168 8.37597L37.724 7.13842L36.8548 1.19282C36.7652 0.511274 36.1738 -0.00885353 35.4839 0.000114222L24.5251 0.0090828C24.1935 0.000115107 23.871 0.125664 23.629 0.331921C23.3781 0.547147 23.181 0.852047 23.1362 1.20179L22.276 7.13842L19.2832 8.37597L14.4713 4.77991C13.9158 4.3674 13.1362 4.41223 12.6434 4.90546L4.90143 12.6536C4.42652 13.1468 4.3638 13.927 4.77598 14.483L8.36918 19.2987L7.13262 22.2939L1.20071 23.1548C0.51075 23.2534 4.14971e-08 23.8363 0 24.5358L0.008955 35.5033C0.00895496 36.2028 0.519709 36.7857 1.20071 36.8933L7.15054 37.7542L8.38709 40.7315L4.77598 45.5651C4.3638 46.1211 4.41756 46.8923 4.91039 47.3855L12.6523 55.1337C13.1362 55.6179 13.9158 55.6807 14.4713 55.2682L14.4803 55.2951Z" fill="white"/>
<path d="M46.2577 12.7808C41.5494 8.34662 35.4021 6.13585 28.9392 6.5401C17.3387 7.26018 8.03568 16.5707 7.31618 28.1803C6.86176 35.5201 9.79026 42.4682 15.3569 47.2434C18.904 50.288 20.9363 54.8232 20.9363 59.6616V65.3591C20.9363 66.1297 21.5674 66.7487 22.3248 66.7487H22.6782C22.9685 69.7174 24.0667 74 30.416 74C36.7653 74 37.8762 69.7048 38.1665 66.7487H38.5199C39.2899 66.7487 39.9084 66.1171 39.9084 65.3591V59.5858C39.9084 54.8864 42.0543 50.3006 45.7655 47.016C50.7389 42.6324 53.5664 36.3033 53.5664 29.6837C53.5664 23.064 50.903 17.1518 46.2577 12.7934V12.7808ZM31.287 17.7455C31.6152 17.4802 31.8046 17.076 31.8046 16.6591V9.35725C36.5129 9.66044 40.8804 11.5427 44.3517 14.802C48.4036 18.6172 50.6505 23.7462 50.7641 29.2668H46.2325C46.3209 28.913 46.3461 28.5593 46.3461 28.2056C46.3461 27.7634 46.2956 27.3087 46.182 26.8665C45.715 25.0726 44.2507 23.6325 42.433 23.203C40.8804 22.8366 39.2773 23.1903 38.0529 24.1631C36.8285 25.1358 36.109 26.6391 36.109 28.2056C36.109 28.5593 36.1468 28.913 36.2226 29.2668H31.8172V23.0387C31.8172 22.6218 31.6405 22.2176 31.2996 21.9523C30.9841 21.687 30.5423 21.5859 30.1257 21.6744C29.5956 21.8007 29.1285 21.927 28.6867 22.066C27.7779 22.3565 26.7049 22.0407 26.1243 21.2827C25.6825 20.7269 25.5057 19.9816 25.6825 19.2615C25.8718 18.453 26.5282 17.7834 27.3234 17.5813C27.7905 17.455 28.2575 17.4676 28.6867 17.6192C29.1411 17.7582 29.6208 17.8971 30.1257 18.0108C30.5423 18.0992 30.9714 17.9982 31.2996 17.7329L31.287 17.7455ZM10.0932 28.3698C10.7244 18.175 18.8661 10.0142 29.0149 9.34462V14.8273C28.2323 14.6631 27.4244 14.6757 26.6166 14.8778C24.8241 15.3453 23.3851 16.8107 22.9685 18.6298C22.5899 20.1837 22.9559 21.7881 23.9279 23.0261C25.1144 24.5168 27.1467 25.2495 29.0023 24.8452V29.2541H22.7792C22.3626 29.2541 21.9713 29.4436 21.7063 29.7721C21.4412 30.1005 21.3276 30.5427 21.4286 30.9469C21.5422 31.4775 21.6684 31.945 21.8072 32.3871C21.8956 32.6271 21.9335 32.8798 21.9335 33.1072C21.9335 33.8146 21.6053 34.5094 21.0372 34.9642C20.4692 35.4064 19.7371 35.558 19.005 35.3937C18.2097 35.2043 17.5281 34.5473 17.3261 33.7515C17.2756 33.5367 17.2378 33.3219 17.2378 33.1072C17.2378 32.8672 17.2756 32.6145 17.364 32.3871C17.5155 31.9323 17.6417 31.4523 17.7553 30.9469C17.8437 30.5427 17.7427 30.1132 17.4776 29.7721C17.2125 29.4563 16.8212 29.2541 16.392 29.2541H10.0553C10.068 28.9509 10.0427 28.6604 10.068 28.3446L10.0932 28.3698ZM17.162 45.1337C13.2111 41.7481 10.8001 37.1118 10.2194 32.0586H14.5996C14.5112 32.4124 14.4733 32.7661 14.4733 33.1198C14.4733 33.562 14.5491 34.0168 14.6501 34.4589C15.1045 36.2528 16.5814 37.6929 18.3991 38.1225C18.803 38.2109 19.2069 38.2614 19.6109 38.2614C20.7469 38.2614 21.883 37.8698 22.7792 37.1497C23.991 36.1896 24.7231 34.6863 24.7231 33.1198C24.7231 32.7535 24.6853 32.4124 24.6095 32.0586H29.0023V38.2867C29.0023 38.7036 29.1916 39.1078 29.5324 39.3731C29.848 39.6384 30.2898 39.7395 30.7064 39.6384C31.2239 39.5247 31.6909 39.3984 32.1454 39.2594C33.0542 38.9562 34.1019 39.2847 34.7078 40.03C35.1496 40.5985 35.3011 41.3439 35.137 42.0639C34.9603 42.8724 34.3039 43.542 33.5086 43.7441C33.0163 43.8704 32.5746 43.8578 32.1327 43.7062C31.6909 43.5546 31.2113 43.4283 30.719 43.3146C30.3024 43.2262 29.8733 43.3272 29.5451 43.5925C29.2169 43.8578 29.0149 44.2621 29.0149 44.679V55.7075H23.2967C22.4636 51.6018 20.3304 47.8625 17.162 45.1337ZM30.416 71.2334C26.9195 71.2334 25.8466 69.7806 25.4931 66.7613H35.3642C34.9981 69.7806 33.9252 71.2334 30.4287 71.2334H30.416ZM37.1188 63.9821H23.7133V59.6743C23.7133 59.2826 23.6754 58.891 23.6376 58.4868H37.1693C37.1567 58.8531 37.1188 59.2195 37.1188 59.5858V63.9821ZM43.9225 44.9316C40.6279 47.8372 38.4063 51.6397 37.5353 55.7075H31.8046V46.4981C32.5872 46.6623 33.395 46.6371 34.2155 46.4223C36.008 45.9675 37.447 44.4895 37.8635 42.6703C38.2296 41.1165 37.8762 39.5121 36.9042 38.2867C35.7176 36.796 33.6854 36.0633 31.8172 36.4675V32.0586H38.0403C38.4568 32.0586 38.8607 31.8692 39.1258 31.5407C39.3909 31.2122 39.4919 30.7701 39.4035 30.3658C39.2899 29.8353 39.1637 29.3678 39.0122 28.913C38.9365 28.6857 38.8986 28.4456 38.8986 28.2056C38.8986 27.4855 39.2268 26.8033 39.7948 26.3486C40.3502 25.9064 41.095 25.7548 41.8145 25.919C42.6224 26.0959 43.304 26.7654 43.4933 27.5487C43.5438 27.7761 43.5817 27.9908 43.5817 28.2056C43.5817 28.4456 43.5438 28.6983 43.4681 28.9257C43.3166 29.3678 43.1904 29.8479 43.0768 30.3658C42.9758 30.7701 43.0894 31.1996 43.3545 31.5407C43.6196 31.8565 44.0109 32.0586 44.4274 32.0586H50.6505C50.0699 36.9981 47.6968 41.5965 43.9478 44.9316H43.9225Z" fill="white"/>
</svg>
