<svg width="16" height="17" viewBox="0 0 16 17" fill="none" xmlns="http://www.w3.org/2000/svg">
<g clip-path="url(#clip0_187_3030)">
<path d="M15.5034 8.50171C15.5034 12.6448 12.1448 16.0034 8.00171 16.0034C3.85863 16.0034 0.5 12.6448 0.5 8.50171C0.5 4.35863 3.85863 1 8.00171 1C12.1448 1 15.5034 4.35863 15.5034 8.50171Z" fill="white" stroke="#3DB1FF"/>
<path d="M12.4844 13.9832C12.2242 14.1863 11.9482 14.3703 11.6563 14.5321C10.5776 15.1508 9.33071 15.4998 7.99817 15.4998C6.66563 15.4998 5.41876 15.1476 4.34004 14.5321C4.04815 14.3671 3.76895 14.1831 3.50244 13.9737C3.54686 13.6533 3.61666 13.336 3.71819 13.0282C3.93076 12.3778 4.24803 11.7845 4.71124 11.2769C5.1935 10.7502 5.78045 10.3854 6.46258 10.1728C7.03684 9.99831 7.62062 9.94437 8.21709 9.96658C8.62637 9.98562 9.0293 10.0427 9.42272 10.1601C10.1398 10.3727 10.7553 10.7471 11.2597 11.2991C11.6753 11.7528 11.9768 12.2731 12.1957 12.8474C12.3194 13.1805 12.4178 13.52 12.4717 13.8722C12.478 13.9103 12.4812 13.9452 12.4844 13.9832Z" fill="#3DB1FF"/>
<path d="M10.9742 5.99773C10.9742 7.64119 9.63851 8.98642 7.99504 8.98642C6.35158 8.98642 5.00952 7.64119 5.00952 5.99773C5.00952 4.35427 6.34841 3.01855 7.99504 3.01855C9.64168 3.01855 10.9742 4.35744 10.9742 5.99773Z" fill="#3DB1FF"/>
</g>
<defs>
<clipPath id="clip0_187_3030">
<rect width="16" height="16" fill="white" transform="translate(0 0.5)"/>
</clipPath>
</defs>
</svg>
