<svg width="233" height="32" viewBox="0 0 233 32" fill="none" xmlns="http://www.w3.org/2000/svg">
<rect x="0.5" width="32" height="32" rx="16" fill="#B7880E"/>
<path d="M21.0919 11.7282V10.7842H24.3719V11.7282L23.1559 11.9362L20.2759 21.2162H18.3559L16.3079 14.3522L14.2439 21.2162H12.3239L9.47593 11.8082L8.62793 11.7282V10.7842H13.8439V11.7282L12.7719 11.8402L14.2919 17.9042L16.0039 11.8562L15.0119 11.7282V10.7842H19.9879V11.7282L18.6759 11.8882L20.3239 18.0322L22.0839 11.8882L21.0919 11.7282Z" fill="white"/>
<rect x="40.5" width="32" height="32" rx="16" fill="#B7880E"/>
<path d="M56.4999 21.5359C55.8279 21.5359 55.1826 21.4239 54.5639 21.1999C53.9452 20.9759 53.3906 20.6345 52.8999 20.1759C52.4199 19.7172 52.0412 19.1412 51.7639 18.4479C51.4866 17.7545 51.3479 16.9385 51.3479 15.9999C51.3479 15.0612 51.4866 14.2452 51.7639 13.5519C52.0519 12.8585 52.4359 12.2825 52.9159 11.8239C53.3959 11.3652 53.9452 11.0239 54.5639 10.7999C55.1826 10.5759 55.8279 10.4639 56.4999 10.4639C57.1719 10.4639 57.8172 10.5759 58.4359 10.7999C59.0546 11.0239 59.6039 11.3652 60.0839 11.8239C60.5639 12.2825 60.9426 12.8585 61.2199 13.5519C61.5079 14.2452 61.6519 15.0612 61.6519 15.9999C61.6519 16.9385 61.5132 17.7545 61.2359 18.4479C60.9586 19.1412 60.5746 19.7172 60.0839 20.1759C59.6039 20.6345 59.0546 20.9759 58.4359 21.1999C57.8172 21.4239 57.1719 21.5359 56.4999 21.5359ZM56.4999 20.5599C56.9586 20.5599 57.3212 20.3732 57.5879 19.9999C57.8652 19.6159 58.0626 19.0825 58.1799 18.3999C58.3079 17.7172 58.3719 16.9172 58.3719 15.9999C58.3719 15.0825 58.3079 14.2825 58.1799 13.5999C58.0626 12.9172 57.8652 12.3839 57.5879 11.9999C57.3212 11.6159 56.9586 11.4239 56.4999 11.4239C56.0519 11.4239 55.6892 11.6159 55.4119 11.9999C55.1346 12.3839 54.9319 12.9172 54.8039 13.5999C54.6866 14.2825 54.6279 15.0825 54.6279 15.9999C54.6279 16.9172 54.6866 17.7172 54.8039 18.3999C54.9319 19.0825 55.1346 19.6159 55.4119 19.9999C55.6892 20.3732 56.0519 20.5599 56.4999 20.5599Z" fill="white"/>
<rect x="80.5" width="32" height="32" rx="16" fill="#B7880E"/>
<path d="M97.548 11.7282V10.7842H101.916V11.7282L100.556 11.9362V21.2162H98.876L93.564 13.7762V20.0642L95.452 20.2722V21.2162H91.084V20.2722L92.444 20.0802V12.2082L92.172 11.8242L91.084 11.7442V10.7842H95.164L99.436 16.6402V11.9362L97.548 11.7282Z" fill="white"/>
<rect x="120.5" width="32" height="32" rx="16" fill="#B7880E"/>
<path d="M135.612 16.2402C135.612 16.9015 135.612 17.5682 135.612 18.2402C135.623 18.9015 135.633 19.5628 135.644 20.2242H135.868C136.657 20.2242 137.287 19.8562 137.756 19.1202C138.236 18.3842 138.476 17.3388 138.476 15.9842C138.476 14.6188 138.236 13.5788 137.756 12.8642C137.276 12.1388 136.641 11.7762 135.852 11.7762H135.644C135.633 12.4268 135.623 13.0828 135.612 13.7442C135.612 14.4055 135.612 15.0722 135.612 15.7442V16.2402ZM131.324 11.7282V10.7842H136.092C137.276 10.7842 138.284 10.9975 139.116 11.4242C139.948 11.8508 140.583 12.4535 141.02 13.2322C141.457 14.0002 141.676 14.9068 141.676 15.9522C141.676 17.0508 141.441 17.9948 140.972 18.7842C140.503 19.5628 139.831 20.1655 138.956 20.5922C138.081 21.0082 137.036 21.2162 135.82 21.2162H131.324V20.2722L132.428 20.1602C132.439 19.5202 132.444 18.8748 132.444 18.2242C132.444 17.5628 132.444 16.9068 132.444 16.2562V15.7442C132.444 15.0935 132.444 14.4428 132.444 13.7922C132.444 13.1415 132.439 12.4908 132.428 11.8402L131.324 11.7282Z" fill="white"/>
<rect x="160.5" width="32" height="32" rx="16" fill="#B7880E"/>
<path d="M172.156 11.7282V10.7842H180.412L180.524 13.5042H179.02L178.716 11.7282H176.476C176.465 12.3148 176.455 12.9068 176.444 13.5042C176.444 14.1015 176.444 14.6988 176.444 15.2962H177.916L178.108 14.1442H179.116V17.4562H178.108L177.932 16.3202H176.444C176.444 17.0242 176.444 17.7015 176.444 18.3522C176.455 19.0028 176.465 19.6482 176.476 20.2882H179.036L179.34 18.4962H180.844L180.732 21.2162H172.156V20.2722L173.26 20.1602C173.271 19.5202 173.276 18.8748 173.276 18.2242C173.276 17.5628 173.276 16.9068 173.276 16.2562V15.7442C173.276 15.0935 173.276 14.4428 173.276 13.7922C173.276 13.1415 173.271 12.4908 173.26 11.8402L172.156 11.7282Z" fill="white"/>
<rect x="200.5" width="32" height="32" rx="16" fill="#B7880E"/>
<path d="M215.764 11.6482H215.412C215.401 12.2989 215.391 12.9442 215.38 13.5842C215.38 14.2243 215.38 14.8109 215.38 15.3442H215.732C216.244 15.3442 216.633 15.2536 216.9 15.0722C217.177 14.8909 217.364 14.6616 217.46 14.3842C217.567 14.0962 217.62 13.7976 217.62 13.4882C217.62 12.8589 217.455 12.3949 217.124 12.0962C216.804 11.7976 216.351 11.6482 215.764 11.6482ZM211.156 11.6002V10.6562H216.66C217.929 10.6562 218.9 10.8856 219.572 11.3442C220.244 11.8029 220.58 12.4376 220.58 13.2483C220.58 13.5896 220.495 13.9256 220.324 14.2562C220.153 14.5869 219.86 14.8856 219.444 15.1522C219.028 15.4082 218.441 15.5949 217.684 15.7122C218.399 15.7976 218.948 15.9576 219.332 16.1922C219.716 16.4269 219.988 16.7362 220.148 17.1202C220.319 17.4936 220.436 17.9469 220.5 18.4803L220.692 20.0162L221.844 20.1442V21.0883C221.535 21.1523 221.284 21.2003 221.092 21.2323C220.9 21.2749 220.713 21.3016 220.532 21.3123C220.361 21.3336 220.137 21.3442 219.86 21.3442C219.113 21.3442 218.511 21.2109 218.052 20.9443C217.604 20.6669 217.343 20.1709 217.268 19.4563L217.108 17.8883C217.065 17.3869 216.948 16.9976 216.756 16.7203C216.575 16.4429 216.281 16.3042 215.876 16.3042H215.38C215.38 16.9549 215.38 17.5896 215.38 18.2083C215.38 18.8162 215.385 19.4243 215.396 20.0323L216.564 20.1442V21.0883H211.156V20.1442L212.26 20.0323C212.271 19.3923 212.276 18.7469 212.276 18.0963C212.276 17.4349 212.276 16.7789 212.276 16.1283V15.6163C212.276 14.9656 212.276 14.3149 212.276 13.6642C212.276 13.0136 212.271 12.3629 212.26 11.7122L211.156 11.6002Z" fill="white"/>
</svg>
