<svg width="24" height="24" viewBox="0 0 24 24" fill="none" xmlns="http://www.w3.org/2000/svg">
<path d="M2.24793 3.9394L9.50713 13.5152V18.3636L14.4929 22V13.5152L21.7521 3.9394C21.8905 3.75899 21.9746 3.5444 21.9951 3.31978C22.0156 3.09515 21.9716 2.86939 21.868 2.66788C21.7645 2.46637 21.6055 2.29711 21.4089 2.17912C21.2124 2.06113 20.986 1.99911 20.7554 2.00001H3.24458C3.01395 1.99911 2.78763 2.06113 2.59108 2.17912C2.39453 2.29711 2.23554 2.46637 2.13198 2.66788C2.02843 2.86939 1.98442 3.09515 2.0049 3.31978C2.02538 3.5444 2.10955 3.75899 2.24793 3.9394Z" fill="#374151"/>
</svg>
