<svg width="24" height="24" viewBox="0 0 24 24" fill="none" xmlns="http://www.w3.org/2000/svg">
<path d="M20.9475 6.44444H11.4752C11.196 6.44444 10.9283 6.32738 10.7309 6.11901C10.5336 5.91063 10.4227 5.62802 10.4227 5.33333C10.4227 5.03865 10.5336 4.75603 10.7309 4.54766C10.9283 4.33929 11.196 4.22222 11.4752 4.22222H20.9475C21.2267 4.22222 21.4944 4.33929 21.6917 4.54766C21.8891 4.75603 22 5.03865 22 5.33333C22 5.62802 21.8891 5.91063 21.6917 6.11901C21.4944 6.32738 21.2267 6.44444 20.9475 6.44444Z" fill="#374151"/>
<path d="M20.9475 13.1111H11.4752C11.196 13.1111 10.9283 12.994 10.7309 12.7857C10.5336 12.5773 10.4227 12.2947 10.4227 12C10.4227 11.7053 10.5336 11.4227 10.7309 11.2143C10.9283 11.006 11.196 10.8889 11.4752 10.8889H20.9475C21.2267 10.8889 21.4944 11.006 21.6917 11.2143C21.8891 11.4227 22 11.7053 22 12C22 12.2947 21.8891 12.5773 21.6917 12.7857C21.4944 12.994 21.2267 13.1111 20.9475 13.1111Z" fill="#374151"/>
<path d="M20.9475 19.7778H11.4752C11.196 19.7778 10.9283 19.6607 10.7309 19.4523C10.5336 19.244 10.4227 18.9614 10.4227 18.6667C10.4227 18.372 10.5336 18.0894 10.7309 17.881C10.9283 17.6726 11.196 17.5556 11.4752 17.5556H20.9475C21.2267 17.5556 21.4944 17.6726 21.6917 17.881C21.8891 18.0894 22 18.372 22 18.6667C22 18.9614 21.8891 19.244 21.6917 19.4523C21.4944 19.6607 21.2267 19.7778 20.9475 19.7778Z" fill="#374151"/>
<path d="M8.3177 22H3.05528C2.83438 22 2.61908 21.9266 2.43988 21.7903C2.26068 21.6539 2.12666 21.4615 2.0568 21.2403C1.98695 21.019 1.9848 20.7802 2.05067 20.5576C2.11653 20.335 2.24707 20.1399 2.42379 20L5.89699 17.2389C5.99755 17.1357 6.07734 17.0122 6.1316 16.8757C6.18585 16.7391 6.21345 16.5925 6.21273 16.4444C6.21273 16.1498 6.10185 15.8671 5.90447 15.6588C5.70709 15.4504 5.43938 15.3333 5.16025 15.3333C4.88111 15.3333 4.61341 15.4504 4.41603 15.6588C4.21865 15.8671 4.10776 16.1498 4.10776 16.4444C4.10776 16.7391 3.99688 17.0217 3.7995 17.2301C3.60212 17.4385 3.33442 17.5556 3.05528 17.5556C2.77614 17.5556 2.50844 17.4385 2.31106 17.2301C2.11368 17.0217 2.00279 16.7391 2.00279 16.4444C2.00294 15.8874 2.13533 15.3393 2.38785 14.8501C2.64037 14.361 3.00498 13.9465 3.44835 13.6445C3.89172 13.3425 4.39972 13.1626 4.92592 13.1212C5.45213 13.0799 5.97975 13.1784 6.46059 13.4078C6.94142 13.6373 7.36013 13.9902 7.67845 14.4345C7.99676 14.8788 8.20454 15.4002 8.28279 15.9511C8.36104 16.502 8.30726 17.0648 8.12638 17.5881C7.9455 18.1114 7.64327 18.5785 7.24732 18.9467C7.20836 18.9824 7.16723 19.0155 7.12418 19.0456L6.20221 19.7778H8.3177C8.59684 19.7778 8.86454 19.8948 9.06192 20.1032C9.2593 20.3116 9.37019 20.5942 9.37019 20.8889C9.37019 21.1836 9.2593 21.4662 9.06192 21.6746C8.86454 21.8829 8.59684 22 8.3177 22Z" fill="#374151"/>
<path d="M7.26522 8.66667H6.21273V3.11111C6.21273 3.09889 6.20642 3.09 6.20642 3.07778C6.19982 3.00235 6.18571 2.92786 6.16432 2.85556C6.15315 2.78347 6.13517 2.71275 6.11064 2.64444C6.11064 2.63333 6.11064 2.62111 6.10222 2.61111C6.0736 2.56652 6.04194 2.52419 6.0075 2.48444C5.9687 2.41668 5.92242 2.35402 5.86962 2.29778C5.8181 2.25237 5.76239 2.21255 5.70333 2.17889C5.64896 2.13824 5.59077 2.10361 5.52967 2.07556C5.45886 2.05172 5.38581 2.03607 5.31181 2.02889C5.26203 2.01533 5.21137 2.00568 5.16025 2C5.14867 2 5.1392 2.00667 5.12762 2.00667C5.05942 2.01404 4.99208 2.02855 4.9266 2.05C4.85643 2.0615 4.78763 2.08086 4.72136 2.10778C4.71084 2.10778 4.69926 2.10778 4.68979 2.11667L2.58482 3.22778C2.33429 3.3595 2.1436 3.5909 2.05468 3.87105C1.96576 4.15121 1.9859 4.45719 2.11067 4.72167C2.23545 4.98615 2.45463 5.18747 2.72001 5.28134C2.98538 5.37521 3.27521 5.35395 3.52574 5.22222L4.10776 4.90889V8.66667H3.05528C2.77614 8.66667 2.50844 8.78373 2.31106 8.9921C2.11368 9.20048 2.00279 9.48309 2.00279 9.77778C2.00279 10.0725 2.11368 10.3551 2.31106 10.5635C2.50844 10.7718 2.77614 10.8889 3.05528 10.8889H7.26522C7.54435 10.8889 7.81206 10.7718 8.00944 10.5635C8.20681 10.3551 8.3177 10.0725 8.3177 9.77778C8.3177 9.48309 8.20681 9.20048 8.00944 8.9921C7.81206 8.78373 7.54435 8.66667 7.26522 8.66667Z" fill="#374151"/>
</svg>
