<svg width="24" height="24" viewBox="0 0 24 24" fill="none" xmlns="http://www.w3.org/2000/svg">
<path d="M10.0001 18C8.41783 18 6.87109 17.5308 5.55548 16.6518C4.23987 15.7727 3.21448 14.5233 2.60897 13.0615C2.00347 11.5997 1.84504 9.99112 2.15372 8.43928C2.46241 6.88743 3.22434 5.46197 4.34318 4.34315C5.46201 3.22433 6.88749 2.4624 8.43936 2.15372C9.99122 1.84504 11.5998 2.00347 13.0616 2.60897C14.5234 3.21447 15.7729 4.23985 16.6519 5.55544C17.531 6.87103 18.0002 8.41775 18.0002 10C17.9978 12.121 17.1542 14.1544 15.6544 15.6542C14.1546 17.154 12.1211 17.9976 10.0001 18ZM10.0001 4C8.8134 4 7.65334 4.3519 6.66664 5.01118C5.67993 5.67047 4.91089 6.60754 4.45675 7.7039C4.00262 8.80026 3.8838 10.0067 4.11532 11.1705C4.34683 12.3344 4.91828 13.4035 5.75741 14.2426C6.59653 15.0818 7.66564 15.6532 8.82954 15.8847C9.99344 16.1162 11.1999 15.9974 12.2962 15.5433C13.3926 15.0891 14.3297 14.3201 14.989 13.3334C15.6483 12.3467 16.0002 11.1867 16.0002 10C15.9986 8.40919 15.3659 6.88399 14.241 5.75912C13.1161 4.63424 11.5909 4.00159 10.0001 4Z" fill="#374151"/>
<path d="M21.0002 22C20.735 21.9999 20.4807 21.8946 20.2932 21.707L16.2931 17.707C16.111 17.5184 16.0102 17.2658 16.0125 17.0036C16.0147 16.7414 16.1199 16.4906 16.3053 16.3052C16.4907 16.1198 16.7416 16.0146 17.0038 16.0123C17.266 16.01 17.5186 16.1108 17.7072 16.293L21.7072 20.293C21.847 20.4329 21.9422 20.611 21.9808 20.805C22.0194 20.9989 21.9996 21.2 21.9239 21.3827C21.8482 21.5654 21.7201 21.7215 21.5557 21.8314C21.3913 21.9413 21.198 22 21.0002 22Z" fill="#374151"/>
</svg>
