<svg width="24" height="24" viewBox="0 0 24 24" fill="none" xmlns="http://www.w3.org/2000/svg">
<path d="M11.7767 17.2924L10.3816 18.5853V10.9996C10.3816 10.7343 10.2679 10.48 10.0655 10.2925C9.86319 10.1049 9.58875 9.99959 9.30259 9.99959C9.01643 9.99959 8.742 10.1049 8.53965 10.2925C8.33731 10.48 8.22363 10.7343 8.22363 10.9996V18.5853L6.82853 17.2924C6.62504 17.1102 6.35249 17.0094 6.06959 17.0117C5.78669 17.014 5.51607 17.1191 5.31602 17.3045C5.11597 17.4899 5.0025 17.7407 5.00004 18.0029C4.99758 18.2651 5.10634 18.5177 5.30288 18.7063L8.53977 21.7062C8.63999 21.7993 8.75906 21.8732 8.89014 21.9236C9.02122 21.9741 9.16175 22 9.30367 22C9.44559 22 9.58612 21.9741 9.7172 21.9236C9.84829 21.8732 9.96735 21.7993 10.0676 21.7062L13.3045 18.7063C13.501 18.5177 13.6098 18.2651 13.6073 18.0029C13.6048 17.7407 13.4914 17.4899 13.2913 17.3045C13.0913 17.1191 12.8207 17.014 12.5378 17.0117C12.2549 17.0094 11.9823 17.1102 11.7788 17.2924H11.7767Z" fill="#374151"/>
<path d="M18.6971 5.29273L15.4602 2.29283C15.3597 2.19951 15.2402 2.12574 15.1085 2.07584C14.8445 1.97472 14.5481 1.97472 14.2842 2.07584C14.1525 2.12574 14.0329 2.19951 13.9324 2.29283L10.6955 5.29273C10.499 5.48133 10.3902 5.73393 10.3927 5.99611C10.3952 6.2583 10.5086 6.50911 10.7087 6.69451C10.9087 6.87991 11.1793 6.98508 11.4622 6.98736C11.7451 6.98963 12.0177 6.88884 12.2212 6.70669L13.6184 5.41373V12.9995C13.6184 13.2647 13.7321 13.519 13.9345 13.7066C14.1368 13.8941 14.4112 13.9995 14.6974 13.9995C14.9836 13.9995 15.258 13.8941 15.4603 13.7066C15.6627 13.519 15.7764 13.2647 15.7764 12.9995V5.41373L17.1715 6.70669C17.375 6.88884 17.6475 6.98963 17.9304 6.98736C18.2133 6.98508 18.4839 6.87991 18.684 6.69451C18.884 6.50911 18.9975 6.2583 19 5.99611C19.0024 5.73393 18.8937 5.48133 18.6971 5.29273Z" fill="#374151"/>
</svg>
