<svg width="24" height="24" viewBox="0 0 24 24" fill="none" xmlns="http://www.w3.org/2000/svg">
<path d="M20.8889 14.2222H17.8644L10.8889 21.1978C10.5845 21.4994 10.2494 21.7683 9.88889 22H20.8889C21.1836 22 21.4662 21.8829 21.6746 21.6746C21.8829 21.4662 22 21.1836 22 20.8889V15.3333C22 15.0386 21.8829 14.756 21.6746 14.5477C21.4662 14.3393 21.1836 14.2222 20.8889 14.2222Z" fill="#374151"/>
<path d="M8.66667 2H3.11111C2.81643 2 2.53381 2.11706 2.32544 2.32544C2.11706 2.53381 2 2.81643 2 3.11111V18.1111C2 19.1425 2.40972 20.1317 3.13903 20.861C3.86834 21.5903 4.85749 22 5.88889 22C6.92029 22 7.90944 21.5903 8.63875 20.861C9.36806 20.1317 9.77778 19.1425 9.77778 18.1111V3.11111C9.77778 2.81643 9.66071 2.53381 9.45234 2.32544C9.24397 2.11706 8.96135 2 8.66667 2ZM5.88889 19.2222C5.66913 19.2222 5.45431 19.1571 5.27159 19.035C5.08887 18.9129 4.94645 18.7393 4.86236 18.5363C4.77826 18.3333 4.75626 18.1099 4.79913 17.8943C4.842 17.6788 4.94782 17.4808 5.10321 17.3254C5.25861 17.17 5.45659 17.0642 5.67212 17.0213C5.88766 16.9785 6.11106 17.0005 6.31409 17.0846C6.51712 17.1687 6.69065 17.3111 6.81274 17.4938C6.93483 17.6765 7 17.8914 7 18.1111C7 18.4058 6.88294 18.6884 6.67456 18.8968C6.46619 19.1052 6.18357 19.2222 5.88889 19.2222Z" fill="#374151"/>
<path d="M19.9244 7.44444L16 3.52C15.7916 3.3117 15.5091 3.19468 15.2144 3.19468C14.9198 3.19468 14.6373 3.3117 14.4289 3.52L12 5.94444V16.9444L19.9244 9.02C20.0283 8.91675 20.1106 8.794 20.1668 8.6588C20.2231 8.52361 20.252 8.37864 20.252 8.23222C20.252 8.08581 20.2231 7.94084 20.1668 7.80564C20.1106 7.67045 20.0283 7.5477 19.9244 7.44444Z" fill="#374151"/>
</svg>
